<svg xmlns="http://www.w3.org/2000/svg" viewBox="0 0 457.18 205.11"><defs><style>.cls-1{fill:#323e48;}.cls-2{fill:#009ed1;}</style></defs><g id="Layer_2" data-name="Layer 2"><g id="Layer_1-2" data-name="Layer 1"><rect class="cls-1" x="84.57" y="157.38" width="6.71" height="35.61"/><path class="cls-1" d="M115.49,180.78a7.76,7.76,0,0,1-.48,2.75,7.47,7.47,0,0,1-1.34,2.25,6.07,6.07,0,0,1-2,1.5,6.16,6.16,0,0,1-2.56.54,4.88,4.88,0,0,1-3.61-1.39,5.33,5.33,0,0,1-1.39-4V165.86H97.36v16.68a11.74,11.74,0,0,0,2.62,8q2.61,3,7.61,3a10.68,10.68,0,0,0,2.84-.34,9.79,9.79,0,0,0,2.22-.88,11.23,11.23,0,0,0,1.7-1.16,12.18,12.18,0,0,0,1.25-1.2l.17,3h6.43V165.86h-6.71Z"/><path class="cls-1" d="M143.86,187.71a5.86,5.86,0,0,1-2.52.45,2.71,2.71,0,0,1-2.48-1.22,6.6,6.6,0,0,1-.76-3.49V171.63h7.16v-5.77H138.1v-8.48h-6.71v8.48h-4.54v5.77h4.54V183.9a16.73,16.73,0,0,0,.46,4.07,8,8,0,0,0,1.5,3.15,6.89,6.89,0,0,0,2.76,2,10.84,10.84,0,0,0,4.15.71,12.45,12.45,0,0,0,4.31-.71,13.76,13.76,0,0,0,3.93-2.36l-2.85-4.15A10.51,10.51,0,0,1,143.86,187.71Z"/><path class="cls-1" d="M166.85,187.71a5.91,5.91,0,0,1-2.53.45,2.69,2.69,0,0,1-2.47-1.22,6.59,6.59,0,0,1-.77-3.49V171.63h7.17v-5.77h-7.17v-8.48h-6.7v8.48h-4.55v5.77h4.55V183.9a17.26,17.26,0,0,0,.45,4.07,8.1,8.1,0,0,0,1.51,3.15,6.89,6.89,0,0,0,2.76,2,10.82,10.82,0,0,0,4.14.71,12.51,12.51,0,0,0,4.32-.71,13.59,13.59,0,0,0,3.92-2.36l-2.84-4.15A10.92,10.92,0,0,1,166.85,187.71Z"/><path class="cls-1" d="M196.28,170.26a11.35,11.35,0,0,0-4.06-3.49,13.07,13.07,0,0,0-6.16-1.34,13.58,13.58,0,0,0-5.49,1.08,13,13,0,0,0-4.26,3,13.45,13.45,0,0,0-2.78,4.4,14.76,14.76,0,0,0-1,5.49,16.66,16.66,0,0,0,1,5.91,12.71,12.71,0,0,0,7.3,7.55,15,15,0,0,0,5.79,1.08,18.37,18.37,0,0,0,5.37-.68,17.5,17.5,0,0,0,3.7-1.53,11.4,11.4,0,0,0,2.21-1.62l.94-.94L195.2,185c-.22.23-.56.52-1,.88a8.1,8.1,0,0,1-1.68,1,13.34,13.34,0,0,1-2.47.85,13.6,13.6,0,0,1-3.38.37,8.23,8.23,0,0,1-2.64-.45,7.61,7.61,0,0,1-2.39-1.31,6.81,6.81,0,0,1-1.7-2,5.45,5.45,0,0,1-.66-2.67h19.89v-1a23.14,23.14,0,0,0-.68-5.57A14.16,14.16,0,0,0,196.28,170.26Zm-17,6.6a5,5,0,0,1,.45-2.05A5.85,5.85,0,0,1,181,173a6.9,6.9,0,0,1,2.13-1.36,7.47,7.47,0,0,1,2.93-.54,6.51,6.51,0,0,1,2.72.54,5.75,5.75,0,0,1,3.13,3.21,5.7,5.7,0,0,1,.4,2.05Z"/><path class="cls-1" d="M220.54,165.63a12.8,12.8,0,0,0-1.73-.11,9.7,9.7,0,0,0-2.93.4,10.27,10.27,0,0,0-2.24,1,9,9,0,0,0-1.68,1.25,13.74,13.74,0,0,0-1.16,1.25l-.17-3.52H204.2V193h6.71V178.3a6.43,6.43,0,0,1,.54-2.67,6.37,6.37,0,0,1,1.45-2,6.05,6.05,0,0,1,2.16-1.31,7.62,7.62,0,0,1,2.61-.45,10.35,10.35,0,0,1,1.68.11,6.29,6.29,0,0,1,1.39.4L222.1,166A8.53,8.53,0,0,0,220.54,165.63Z"/><rect class="cls-1" x="51.19" y="157.37" width="28.5" height="7.13"/><rect class="cls-1" x="51.19" y="171.62" width="21.38" height="7.13"/><rect class="cls-1" x="51.19" y="185.87" width="7.13" height="7.12"/><path class="cls-1" d="M216.1,158.09H215v-.71h3.1v.71h-1.15v2.84h-.81Z"/><path class="cls-1" d="M218.57,157.38h.76l.92,1.67.91-1.67h.76l.17,3.55h-.8l-.1-2.32-.74,1.38H220l-.78-1.36-.09,2.3h-.77Z"/><path class="cls-1" d="M14,157.35h5.56L33.47,193H27.4l-3-8.38H8.83L5.73,193H0ZM22.73,180,16.6,163.42,10.42,180Z"/><path class="cls-1" d="M262.41,189.46a13.29,13.29,0,0,1-4.34,3.2,13.77,13.77,0,0,1-6,1.22,15.15,15.15,0,0,1-5.76-1,12.24,12.24,0,0,1-7.12-7.31,16.07,16.07,0,0,1-1-5.65,14.5,14.5,0,0,1,1-5.44,13.44,13.44,0,0,1,2.86-4.45A14.43,14.43,0,0,1,258,167.06a13.23,13.23,0,0,1,4.36,3.23L259,173.52a8.61,8.61,0,0,0-2.9-2.32,8.83,8.83,0,0,0-4-.86,8.44,8.44,0,0,0-3.66.77,7.74,7.74,0,0,0-2.72,2.1,9.75,9.75,0,0,0-1.71,3.06,11.23,11.23,0,0,0-.59,3.6,11,11,0,0,0,.59,3.55,9.75,9.75,0,0,0,1.71,3.06,8.06,8.06,0,0,0,2.72,2.13,8.17,8.17,0,0,0,3.66.79,9.52,9.52,0,0,0,4.17-.88,8.56,8.56,0,0,0,3-2.35Z"/><path class="cls-1" d="M278,193.88a14.09,14.09,0,0,1-5.62-1.1,13.24,13.24,0,0,1-4.39-3,14.32,14.32,0,0,1-2.9-4.45,14.49,14.49,0,0,1,0-10.83A14.37,14.37,0,0,1,268,170a13.36,13.36,0,0,1,4.39-3,13.92,13.92,0,0,1,5.62-1.11A13.79,13.79,0,0,1,288,170a14.07,14.07,0,0,1,2.92,4.46A14.18,14.18,0,0,1,288,189.74a13.61,13.61,0,0,1-4.43,3A13.92,13.92,0,0,1,278,193.88Zm0-4.42a8.06,8.06,0,0,0,3.68-.82,8.75,8.75,0,0,0,2.78-2.16,9.41,9.41,0,0,0,1.73-3.06,10.76,10.76,0,0,0,.6-3.55,10.53,10.53,0,0,0-.6-3.48,9.42,9.42,0,0,0-1.76-3.1,9,9,0,0,0-2.78-2.18,7.88,7.88,0,0,0-3.65-.82,8.1,8.1,0,0,0-3.69.82,8.75,8.75,0,0,0-2.78,2.16,9.31,9.31,0,0,0-1.73,3.06,10.7,10.7,0,0,0-.6,3.54,10.5,10.5,0,0,0,.6,3.52,9.44,9.44,0,0,0,1.76,3.06,8.88,8.88,0,0,0,2.78,2.19A7.92,7.92,0,0,0,278,189.46Z"/><path class="cls-1" d="M297.18,172.44v-3c0-.85,0-1.75-.06-2.69H302l.17,4a13.12,13.12,0,0,1,1.19-1.51,9,9,0,0,1,1.76-1.5,10.17,10.17,0,0,1,2.41-1.14,10.34,10.34,0,0,1,3.2-.45,9.7,9.7,0,0,1,5.08,1.22,8.29,8.29,0,0,1,3.15,3.55,16.42,16.42,0,0,1,3.88-3.32,10.45,10.45,0,0,1,5.7-1.45c3.4,0,5.92,1,7.54,3a12.57,12.57,0,0,1,2.44,8.13v15.83h-5.1V177.66c0-2.46-.48-4.26-1.45-5.42a5.19,5.19,0,0,0-4.22-1.72,6.45,6.45,0,0,0-2.92.65,7.62,7.62,0,0,0-3.86,4.25,8.65,8.65,0,0,0-.54,3v14.63h-5.1V177.66c0-2.46-.49-4.26-1.45-5.42a5.12,5.12,0,0,0-4.17-1.72,6.46,6.46,0,0,0-3.52.9,7.18,7.18,0,0,0-2.29,2.36,10.08,10.08,0,0,0-1.25,3.31,19.07,19.07,0,0,0-.37,3.75v12.25h-5.1Z"/><path class="cls-1" d="M344.82,172.44v-3c0-.85,0-1.75-.06-2.69h4.88l.17,3.74a13.34,13.34,0,0,1,1.13-1.25,10.67,10.67,0,0,1,1.85-1.42,12.31,12.31,0,0,1,2.58-1.16,11,11,0,0,1,3.4-.48,11.74,11.74,0,0,1,5.31,1.13,10.76,10.76,0,0,1,3.71,3.06,13.2,13.2,0,0,1,2.18,4.43,18.9,18.9,0,0,1,.71,5.27,14.39,14.39,0,0,1-1.22,6.19,12.85,12.85,0,0,1-3.17,4.31,13.13,13.13,0,0,1-4.37,2.52,14.6,14.6,0,0,1-4.74.82,13.9,13.9,0,0,1-4.28-.54,30.4,30.4,0,0,1-3-1.16v12.25h-5.05Zm5.05,14.92a10.26,10.26,0,0,0,2.61,1.42,11.57,11.57,0,0,0,4.25.68,8.74,8.74,0,0,0,3.54-.71,7.92,7.92,0,0,0,2.78-2,8.93,8.93,0,0,0,1.79-3,10.73,10.73,0,0,0,.62-3.75,15.18,15.18,0,0,0-.42-3.63,8.75,8.75,0,0,0-1.36-3,6.81,6.81,0,0,0-2.41-2.07,7.86,7.86,0,0,0-3.63-.77,7.32,7.32,0,0,0-4.65,1.5,9.44,9.44,0,0,0-3.07,6.36c0,.7-.05,1.42-.05,2.18Z"/><path class="cls-1" d="M392.41,189.91a8.77,8.77,0,0,1-3.89,3,13.31,13.31,0,0,1-5,1,12.86,12.86,0,0,1-3.26-.43,8.41,8.41,0,0,1-2.95-1.42,7.46,7.46,0,0,1-2.16-2.55,8.1,8.1,0,0,1-.82-3.83,8.49,8.49,0,0,1,3-6.8c2-1.71,4.85-2.56,8.59-2.56.6,0,1.25,0,1.93.06l1.93.11,1.58.12c.46,0,.78.07,1,.11v-1a4.84,4.84,0,0,0-1.79-4.23,8.21,8.21,0,0,0-4.85-1.28A11.36,11.36,0,0,0,381,171a18.67,18.67,0,0,0-2.95,1.67l-2.38-3.46a11.38,11.38,0,0,1,1.64-1.13,13.79,13.79,0,0,1,2.27-1.05,18.71,18.71,0,0,1,3-.8,21.3,21.3,0,0,1,3.8-.31q5.1,0,8,2.47a8.67,8.67,0,0,1,2.92,7v15.34c0,.93,0,1.72,0,2.36h-4.76Zm-.06-9.3c-.15,0-.45-.08-.88-.14s-.94-.1-1.5-.14l-1.82-.12c-.64,0-1.27-.05-1.87-.05a9.94,9.94,0,0,0-3.49.51,5.9,5.9,0,0,0-2.1,1.27,4.06,4.06,0,0,0-1.05,1.71,6,6,0,0,0-.28,1.78,3.79,3.79,0,0,0,1.48,3.26,6.64,6.64,0,0,0,4.08,1.11,7.82,7.82,0,0,0,2.81-.51,8.51,8.51,0,0,0,2.35-1.36,6.79,6.79,0,0,0,1.64-2,4.71,4.71,0,0,0,.63-2.32Z"/><path class="cls-1" d="M403.64,172.44v-3c0-.85,0-1.75-.06-2.69h4.88l.17,4c.34-.46.75-1,1.24-1.51a8.33,8.33,0,0,1,1.82-1.5,11.28,11.28,0,0,1,2.52-1.14,11,11,0,0,1,3.26-.45c3.44,0,6,1,7.66,3a12.39,12.39,0,0,1,2.5,8.16v15.83h-5.11V177.66c0-2.46-.53-4.26-1.59-5.42a5.78,5.78,0,0,0-4.48-1.72,6.61,6.61,0,0,0-6,3.26,10.54,10.54,0,0,0-1.27,3.29,17.48,17.48,0,0,0-.4,3.77v12.25h-5.1Z"/><path class="cls-1" d="M432.9,199.55a6,6,0,0,0,1.31.91,3.7,3.7,0,0,0,1.81.4,2.87,2.87,0,0,0,1.56-.4,3.76,3.76,0,0,0,1.19-1.22,12.11,12.11,0,0,0,1-2l1.11-2.7.68-1.7-11.8-26.14h5.84l8.51,19.9,7.49-19.9h5.56l-10.55,25.69c-.49,1.21-1,2.54-1.51,4a24.27,24.27,0,0,1-1.9,4.14,11.45,11.45,0,0,1-2.77,3.26,6.46,6.46,0,0,1-4.14,1.3,9.11,9.11,0,0,1-3.35-.54,8,8,0,0,1-2.38-1.44Z"/><polygon class="cls-2" points="438.86 117.46 438.86 135.78 402.21 135.78 402.21 99.14 420.53 99.14 420.53 117.46 438.86 117.46"/><rect class="cls-2" x="438.85" y="80.82" width="18.32" height="18.32"/><path d="M94.45,56.4V0H0V135.77H118.33V56.4ZM23.88,23.88H70.57V56.4H23.88Zm70.57,88H23.88V80.28H94.45Z"/><polygon points="145.94 0 169.58 0 169.58 111.89 230.89 111.89 230.89 135.77 145.94 135.77 145.94 0"/><rect x="255.66" width="23.88" height="135.77"/><path d="M307.76,0V135.77h23.78v-55h70.67V0Zm70.57,56.93H331.54v-33h46.79Z"/></g></g></svg>