<?xml version="1.0" encoding="UTF-8"?><svg xmlns="http://www.w3.org/2000/svg" xmlns:xlink="http://www.w3.org/1999/xlink" viewBox="0 0 801.89 149.59"><defs><style>.g{fill:url(#e);}.h{fill:url(#d);}.i,.j{fill:none;}.k{fill:#000078;}.l{fill:#b1b3b6;}.m{fill:#29e7d6;}.j{stroke:#29e7d6;stroke-miterlimit:10;stroke-width:4px;}.n{clip-path:url(#f);}</style><linearGradient id="d" x1="88.52" y1="142.03" x2="88.54" y2="142.03" gradientTransform="matrix(1, 0, 0, 1, 0, 0)" gradientUnits="userSpaceOnUse"><stop offset=".1" stop-color="#29e7d6"/><stop offset="1" stop-color="#000078"/></linearGradient><linearGradient id="e" x1="33.6" y1="74.72" x2="170.96" y2="74.72" xlink:href="#d"/><clipPath id="f"><path class="i" d="M88.54,142.03c-31.35-6.36-54.95-34.08-54.95-67.31,0-22.76,18.45-41.21,41.21-41.21s41.21,18.45,41.21,41.21c0,17.94-11.47,33.2-27.47,38.86,4.3,1.52,8.92,2.35,13.74,2.35,22.76,0,41.21-18.45,41.21-41.21v0c0-37.93-30.75-68.68-68.68-68.68S6.12,36.79,6.12,74.72s30.75,68.68,68.68,68.68c5,0,9.88-.54,14.58-1.56-.28,.06-.56,.12-.84,.18Z"/></clipPath></defs><g id="a"/><g id="b"><g id="c"><g><g><path class="l" d="M611.88,65.79l-1.45-3.59h-6.38l-1.44,3.59h-1.72l5.34-13.15h2.06l5.35,13.15h-1.77Zm-2.08-5.16l-2.55-6.36-2.56,6.36h5.12Z"/><path class="l" d="M630.75,56.14c0,1.44-.76,2.46-1.88,2.88,1.26,.45,2.17,1.49,2.17,3.1,0,2.56-1.89,3.67-4.82,3.67h-5.35v-13.15h5.09c2.78,0,4.79,.98,4.79,3.49Zm-8.23,2.23h3.39c1.74,0,3.11-.39,3.11-2.1s-1.39-2.07-3.13-2.07h-3.37v4.17Zm0,5.88h3.63c1.91,0,3.16-.49,3.16-2.19s-1.25-2.15-3.16-2.15h-3.63v4.34Z"/><path class="l" d="M646.24,65.79v-11.32l-4.4,9.9h-1.75l-4.4-9.82v11.24h-1.65v-13.16h2.53l4.4,9.81,4.4-9.81h2.53v13.16h-1.65Z"/><path class="l" d="M663.59,65.8l-3.52-10.98-3.52,10.98h-2.04l-4.22-13.16h1.74l3.52,11.29,3.6-11.3h1.88l3.61,11.3,3.51-11.29h1.7l-4.21,13.16h-2.05Z"/><path class="l" d="M688.21,54.63l-1.21,1.17c-.91-1.1-2.27-1.77-3.88-1.77-2.89,0-5.08,2.09-5.08,5.18s2.19,5.18,5.01,5.18,4.34-1.55,4.59-4.13h-3.94v-1.54h5.74c0,.14,.02,.27,.02,.41,0,3.82-2.42,6.84-6.4,6.84-3.45,0-6.73-2.47-6.73-6.76,0-3.95,2.9-6.77,6.81-6.77,2.1,0,3.89,.82,5.09,2.18Z"/><path class="l" d="M702.27,56.37c0,2.29-1.77,3.75-4.59,3.75h-.1l4.63,5.67h-2.05l-4.52-5.67h-1.54v5.67h-1.65v-13.15h5.22c2.98,0,4.6,1.32,4.6,3.73Zm-8.17,2.24h3.53c1.94,0,2.92-.77,2.92-2.24s-1-2.18-2.92-2.18h-3.53v4.42Z"/><path class="l" d="M718.06,59.22c0,3.93-2.86,6.77-6.81,6.77s-6.81-2.83-6.81-6.77,2.86-6.77,6.81-6.77,6.81,2.84,6.81,6.77Zm-11.89,0c0,3.09,2.19,5.18,5.08,5.18s5.08-2.09,5.08-5.18-2.19-5.18-5.08-5.18-5.08,2.09-5.08,5.18Z"/><path class="l" d="M726.32,65.98c-3.03,0-5.46-1.76-5.46-5.34v-7.99h1.65v7.87c0,2.7,1.61,3.88,3.8,3.88s3.79-1.17,3.79-3.88v-7.87h1.66v7.99c0,3.59-2.42,5.34-5.46,5.34Z"/><path class="l" d="M736.99,65.79h-1.65v-13.15h5c2.97,0,4.65,1.49,4.65,3.94s-1.68,3.94-4.65,3.94h-3.34v5.26Zm0-6.82h3.31c1.95,0,2.97-.78,2.97-2.39s-1.01-2.39-2.97-2.39h-3.31v4.77Z"/><path class="l" d="M759.8,63.94c-.96,1.14-2.17,2.04-4.03,2.04-2.34,0-3.79-1.25-3.79-3.32,0-1.68,1.21-2.82,2.52-3.82-1.28-1.25-1.88-2.1-1.88-3.38,0-1.67,1.37-3,3.38-3s3.37,1.21,3.37,2.93c0,1.51-1.23,2.54-2.54,3.51l2.83,2.74,1.98-3,1.24,.78-2.14,3.26,3.2,3.11h-2.23l-1.92-1.85Zm-1.05-1.02l-3.2-3.08c-1.06,.81-1.92,1.65-1.92,2.76s.92,1.93,2.24,1.93c1.24,0,2.06-.59,2.88-1.62Zm-2.96-5.01c1.06-.78,1.94-1.53,1.94-2.45s-.66-1.54-1.74-1.54-1.73,.66-1.73,1.63c0,.74,.35,1.23,1.52,2.36Z"/><path class="l" d="M613.1,76.37l-1.38,.93c-.86-1.28-2.28-2.07-4-2.07-2.89,0-5.08,2.09-5.08,5.18s2.19,5.18,5.08,5.18c1.69,0,3.13-.77,3.99-2.06l1.35,.99c-1.1,1.64-3.08,2.66-5.34,2.66-3.94,0-6.81-2.83-6.81-6.77s2.86-6.77,6.81-6.77c2.3,0,4.35,1.03,5.38,2.72Z"/><path class="l" d="M625.84,77.57c0,2.29-1.77,3.75-4.59,3.75h-.1l4.63,5.67h-2.05l-4.52-5.67h-1.54v5.67h-1.65v-13.15h5.22c2.98,0,4.6,1.32,4.6,3.73Zm-8.17,2.24h3.53c1.94,0,2.92-.77,2.92-2.24s-1-2.18-2.92-2.18h-3.53v4.42Z"/><path class="l" d="M628.76,86.99v-13.15h1.65v13.15h-1.65Z"/><path class="l" d="M638.81,75.41v11.58h-1.65v-11.58h-4.49v-1.57h10.62v1.57h-4.48Z"/><path class="l" d="M645.53,86.99v-13.15h1.65v13.15h-1.65Z"/><path class="l" d="M662.37,76.37l-1.38,.93c-.86-1.28-2.28-2.07-4-2.07-2.89,0-5.08,2.09-5.08,5.18s2.19,5.18,5.08,5.18c1.69,0,3.13-.77,3.99-2.06l1.35,.99c-1.1,1.64-3.08,2.66-5.34,2.66-3.94,0-6.81-2.83-6.81-6.77s2.86-6.77,6.81-6.77c2.3,0,4.35,1.03,5.38,2.72Z"/><path class="l" d="M674.73,86.99l-1.45-3.59h-6.38l-1.44,3.59h-1.72l5.34-13.15h2.06l5.35,13.15h-1.77Zm-2.08-5.16l-2.55-6.36-2.56,6.36h5.12Z"/><path class="l" d="M678.7,86.99v-13.15h1.65v11.58h7.53v1.57h-9.18Z"/><path class="l" d="M699.35,75.23c-1.93,0-3.3,.85-3.3,2.28,0,1.2,1,1.79,2.98,2.05l1.16,.14c2.23,.27,4.13,1.16,4.13,3.49,0,2.63-2.38,3.99-5.22,3.99-1.89,0-3.9-.65-5.18-1.71l.9-1.31c.9,.8,2.61,1.46,4.28,1.46,1.96,0,3.5-.8,3.5-2.28,0-1.21-1.11-1.8-3.15-2.06l-1.22-.15c-2.17-.25-3.9-1.28-3.9-3.51,0-2.53,2.25-3.95,5.02-3.95,1.98,0,3.48,.59,4.73,1.44l-.85,1.34c-1.08-.72-2.37-1.21-3.9-1.21Z"/><path class="l" d="M720.16,80.42c0,3.93-2.86,6.77-6.81,6.77s-6.81-2.83-6.81-6.77,2.86-6.77,6.81-6.77,6.81,2.84,6.81,6.77Zm-11.89,0c0,3.09,2.19,5.18,5.08,5.18s5.08-2.09,5.08-5.18-2.19-5.18-5.08-5.18-5.08,2.09-5.08,5.18Z"/><path class="l" d="M724.81,81.15v5.84h-1.65v-13.15h9.17v1.57h-7.52v4.18h7.15v1.56h-7.15Z"/><path class="l" d="M739.97,75.41v11.58h-1.65v-11.58h-4.49v-1.57h10.62v1.57h-4.48Z"/><path class="l" d="M758.65,87l-3.52-10.98-3.52,10.98h-2.04l-4.22-13.16h1.74l3.52,11.29,3.6-11.3h1.88l3.61,11.3,3.51-11.29h1.7l-4.21,13.16h-2.05Z"/><path class="l" d="M775.84,86.99l-1.45-3.59h-6.38l-1.44,3.59h-1.72l5.34-13.15h2.06l5.35,13.15h-1.77Zm-2.08-5.16l-2.55-6.36-2.56,6.36h5.12Z"/><path class="l" d="M789.63,77.57c0,2.29-1.77,3.75-4.59,3.75h-.1l4.63,5.67h-2.05l-4.52-5.67h-1.54v5.67h-1.65v-13.15h5.22c2.98,0,4.6,1.32,4.6,3.73Zm-8.17,2.24h3.53c1.94,0,2.92-.77,2.92-2.24s-1-2.18-2.92-2.18h-3.53v4.42Z"/><path class="l" d="M792.55,86.99v-13.15h9.24v1.55h-7.59v4.2h7.34v1.56h-7.34v4.29h7.68v1.55h-9.33Z"/><path class="l" d="M613.1,97.57l-1.38,.93c-.86-1.28-2.28-2.07-4-2.07-2.89,0-5.08,2.09-5.08,5.18s2.19,5.18,5.08,5.18c1.69,0,3.13-.77,3.99-2.06l1.35,.99c-1.1,1.64-3.08,2.66-5.34,2.66-3.94,0-6.81-2.83-6.81-6.77s2.86-6.77,6.81-6.77c2.3,0,4.35,1.03,5.38,2.72Z"/><path class="l" d="M628.68,101.62c0,3.93-2.86,6.77-6.81,6.77s-6.81-2.83-6.81-6.77,2.86-6.77,6.81-6.77,6.81,2.84,6.81,6.77Zm-11.89,0c0,3.09,2.19,5.18,5.08,5.18s5.08-2.09,5.08-5.18-2.19-5.18-5.08-5.18-5.08,2.09-5.08,5.18Z"/><path class="l" d="M643.88,108.19v-11.32l-4.4,9.9h-1.75l-4.4-9.82v11.24h-1.65v-13.16h2.53l4.4,9.81,4.4-9.81h2.53v13.16h-1.65Z"/><path class="l" d="M650.93,108.19h-1.65v-13.15h5c2.97,0,4.65,1.49,4.65,3.94s-1.68,3.94-4.65,3.94h-3.34v5.26Zm0-6.82h3.31c1.95,0,2.97-.78,2.97-2.39s-1.01-2.39-2.97-2.39h-3.31v4.77Z"/><path class="l" d="M670.33,108.19l-1.45-3.59h-6.38l-1.44,3.59h-1.72l5.34-13.15h2.06l5.35,13.15h-1.77Zm-2.08-5.16l-2.55-6.36-2.56,6.36h5.12Z"/><path class="l" d="M683.9,108.2l-7.94-10.33v10.32h-1.66v-13.16h1.49l7.95,10.33v-10.32h1.65v13.16h-1.49Z"/><path class="l" d="M694.21,108.19h-1.65v-5.48l-5.18-7.66h1.98l4.04,6.15,4.04-6.15h1.93l-5.15,7.68v5.47Z"/></g><line class="j" x1="557.99" y1="35.09" x2="557.99" y2="125.76"/><path class="k" d="M277.25,42.6h-.02c-5.07-.36-8.84,2.75-8.84,7.94v15.47h-8.24v-30.91h8.66c.12,1.47-.14,3.16-.69,4.43,.03-.06,.06-.12,.09-.18,.44-.86,1.01-1.65,1.71-2.32h0c.07-.08,.14-.14,.22-.21,.55-.5,1.16-.93,1.84-1.27l.06-.03c.06-.03,.11-.05,.17-.08,.05-.02,.1-.05,.15-.07h0c1.98-.86,4.46-1.02,7.45-.22l-.95,7.67c-.15-.03-.3-.06-.44-.08-.05,0-.11-.02-.16-.03-.13-.02-.27-.04-.4-.06-.04,0-.09-.01-.13-.02-.16-.02-.31-.03-.47-.04Z"/><rect class="k" x="327.83" y="35.09" width="8.24" height="30.91"/><rect class="k" x="327.83" y="23.68" width="8.24" height="6.18"/><rect class="k" x="285.98" y="23.68" width="8.24" height="6.18"/><rect class="k" x="417.81" y="23.68" width="8.24" height="42.32"/><path class="k" d="M320.22,42.24v-7.14h-10.14v-11.41h-8.24v29.16c0,4.37,.7,7.1,2.28,9.19,2.09,2.79,5.71,4.44,10.65,4.44,1.58,0,4.22-.29,5.29-.67l-1.63-6.89c-.57,.13-1.95,.27-3.15,.27-2.03,0-3.36-.57-4.18-1.52-.7-.82-1.01-1.97-1.01-3.87v-11.56h10.14Z"/><path class="k" d="M401,35.09v1.79c-2.39-1.44-5.2-2.27-8.19-2.27-8.8,0-15.93,7.13-15.93,15.93s7.13,15.93,15.93,15.93c3,0,5.8-.83,8.19-2.27v1.79h8.24v-30.91h-8.24Zm-8.19,23.78c-4.6,0-8.32-3.73-8.32-8.32s3.73-8.32,8.32-8.32,8.32,3.73,8.32,8.32-3.73,8.32-8.32,8.32Z"/><path class="k" d="M365.97,55.44c-1.51,2.08-3.96,3.43-6.73,3.43-4.6,0-8.32-3.73-8.32-8.32s3.73-8.32,8.32-8.32c2.77,0,5.22,1.35,6.73,3.43l6.16-4.47c-2.9-3.98-7.59-6.57-12.89-6.57-8.8,0-15.93,7.13-15.93,15.93s7.13,15.93,15.93,15.93c5.3,0,9.99-2.59,12.89-6.57l-6.16-4.47Z"/><rect class="k" x="285.98" y="35.09" width="8.24" height="30.91"/><path class="k" d="M246.35,52.71c-2.43,3.35-6.38,5.52-10.83,5.52-7.4,0-13.39-6-13.39-13.39s6-13.39,13.39-13.39c4.45,0,8.4,2.18,10.83,5.52l6.67-4.85c-3.93-5.4-10.31-8.92-17.5-8.92-11.95,0-21.64,9.69-21.64,21.64s9.69,21.64,21.64,21.64c7.2,0,13.57-3.51,17.5-8.92l-6.67-4.85Z"/><path class="m" d="M273.24,110.02c0-8.52-5.99-15.65-14.45-15.65-9.08,0-14.89,7.44-14.89,15.96,0,9.59,6.88,15.9,16.02,15.9,4.73,0,9.59-1.96,12.55-5.49l-4.67-4.67c-1.45,1.58-4.23,3.53-7.7,3.53-4.35,0-7.82-2.97-8.26-7.25h21.2c.13-.69,.19-1.51,.19-2.33Zm-21.01-3.66c.38-2.78,3.15-5.36,6.56-5.36s5.8,2.65,6.06,5.36h-12.62Z"/><path class="m" d="M300.65,115.19c-1.51,2.08-3.96,3.43-6.73,3.43-4.6,0-8.32-3.73-8.32-8.32s3.73-8.32,8.32-8.32c2.77,0,5.22,1.35,6.73,3.43l6.16-4.47c-2.9-3.98-7.59-6.57-12.89-6.57-8.8,0-15.93,7.13-15.93,15.93s7.13,15.93,15.93,15.93c5.3,0,9.99-2.59,12.89-6.57l-6.16-4.47Z"/><path class="m" d="M338.31,99.2c-2.47-2.97-6.24-4.82-10.38-4.82-3.07,0-5.9,1.04-8.12,2.76v-13.69h-8.24v42.32h8.24v-20.37c1.25-1.5,3.87-3.37,7.03-3.37,1.85,0,3.46,.62,4.51,1.67,1.11,1.11,1.79,2.66,1.79,5.63v16.44h8.27v-16.05c0-5.13-1.11-8.16-3.09-10.51Z"/><polygon class="m" points="213.88 83.44 213.88 91.68 225.31 91.68 225.31 125.76 233.66 125.76 233.66 91.68 248.76 91.68 245.09 83.44 213.88 83.44"/><polygon class="m" points="385.39 94.85 377.88 112.49 375.35 106.8 371.13 97.33 370.02 94.85 361.76 94.85 367.1 106.8 363.08 116.28 348.46 83.44 340.22 83.44 359.1 125.76 367.34 125.76 371.32 116.28 375.5 125.76 380.53 125.76 393.65 94.85 385.39 94.85"/><path class="m" d="M450.2,102.39s.09,.01,.13,.02c.13,.02,.27,.03,.4,.06,.05,0,.11,.02,.16,.03,.15,.02,.29,.05,.44,.08l.95-7.67c-2.98-.8-5.47-.64-7.45,.23h0c-.05,.02-.1,.04-.15,.07-.06,.03-.11,.05-.17,.08l-.06,.03c-.68,.34-1.29,.76-1.84,1.27-.07,.07-.14,.13-.22,.2h0c-.69,.68-1.27,1.46-1.71,2.33-.03,.06-.06,.12-.09,.18,.56-1.27,.82-2.95,.69-4.43h-8.66v30.91h8.24v-15.47c0-5.18,3.78-8.29,8.84-7.94h.02c.15,.01,.31,.03,.47,.05Z"/><path class="m" d="M410.76,94.37c-8.8,0-15.93,7.13-15.93,15.93s7.13,15.93,15.93,15.93,15.93-7.13,15.93-15.93-7.13-15.93-15.93-15.93Zm0,24.25c-4.6,0-8.32-3.73-8.32-8.32s3.73-8.32,8.32-8.32,8.32,3.73,8.32,8.32-3.73,8.32-8.32,8.32Z"/><path class="m" d="M494.56,116.26c2.08,1.89,5.3,3.03,8.39,3.03,2.21,0,3.91-1.07,3.91-2.59,0-4.61-14.83-2.97-14.83-12.81,0-5.87,5.68-9.53,11.73-9.53,3.97,0,8.33,1.51,10.35,3.09l-3.85,5.93c-1.58-1.14-3.66-2.08-5.87-2.08s-4.16,.88-4.16,2.46c0,3.97,14.83,2.4,14.83,13,0,5.87-5.74,9.46-12.18,9.46-4.23,0-8.71-1.45-12.3-4.1l3.97-5.87Z"/><polygon class="m" points="473.62 109.24 488.01 94.85 477.26 94.85 468.7 103.41 465.52 106.58 465.52 83.44 457.28 83.44 457.28 125.76 465.52 125.76 465.52 112.14 477.98 125.76 488.74 125.76 473.62 109.24"/><path class="h" d="M88.54,142.03h0Z"/><path class="g" d="M102.28,6.04c-4.7,0-9.3,.47-13.74,1.38,31.35,6.36,54.95,34.08,54.95,67.31,0,22.76-18.45,41.21-41.21,41.21-.33,0-.66,0-.98-.01-.12,0-.24,0-.36-.01-.2,0-.4-.01-.61-.02-.15,0-.31-.02-.46-.02-.16,0-.32-.02-.48-.03-.18-.01-.36-.03-.54-.04-.12,0-.24-.02-.36-.03-.21-.02-.43-.04-.64-.06-.04,0-.08,0-.12-.01-20.62-2.26-36.66-19.74-36.66-40.96,0-17.94,11.47-33.2,27.47-38.86-4.3-1.52-8.92-2.35-13.74-2.35-22.76,0-41.21,18.45-41.21,41.21,0,.56,0,1.12,.02,1.67,0,.18,.01,.36,.02,.55,.01,.37,.02,.75,.04,1.12,.01,.21,.02,.43,.04,.64,.02,.34,.04,.68,.06,1.02,.02,.22,.03,.44,.05,.67,.03,.33,.06,.66,.09,.99,.02,.22,.04,.44,.07,.66,.04,.33,.07,.67,.11,1,.03,.21,.05,.42,.08,.63,.05,.36,.1,.72,.15,1.08,.03,.18,.05,.36,.08,.54,.08,.5,.16,1,.25,1.5,0,.03,.01,.07,.02,.1,.09,.53,.2,1.06,.3,1.58,.04,.17,.07,.34,.11,.52,.07,.35,.15,.71,.23,1.06,.05,.2,.1,.41,.14,.61,.08,.32,.15,.64,.23,.95,.05,.21,.11,.43,.17,.64,.08,.31,.16,.62,.25,.92,.06,.21,.12,.42,.18,.64,.09,.31,.18,.62,.28,.93,.06,.2,.12,.41,.19,.61,.1,.33,.21,.65,.32,.98,.06,.18,.12,.36,.18,.54,.15,.43,.3,.85,.45,1.28,.03,.07,.05,.15,.08,.22,.18,.49,.37,.98,.56,1.47,.07,.17,.13,.33,.2,.5,.13,.32,.26,.64,.39,.96,.08,.2,.17,.39,.25,.59,.12,.29,.25,.58,.38,.86,.09,.2,.18,.41,.28,.61,.13,.28,.26,.55,.39,.83,.1,.2,.19,.41,.29,.61,.13,.27,.27,.55,.41,.82,.1,.2,.2,.39,.3,.59,.15,.28,.3,.57,.45,.85,.1,.18,.19,.36,.29,.54,.19,.35,.38,.69,.58,1.04,.06,.11,.12,.22,.18,.33,.25,.44,.51,.88,.78,1.32,.1,.17,.21,.33,.31,.5,.17,.28,.34,.55,.52,.83,.12,.19,.24,.38,.36,.56,.16,.25,.32,.5,.49,.74,.13,.19,.26,.39,.39,.58,.16,.24,.33,.47,.49,.71,.14,.19,.27,.39,.41,.58,.17,.23,.34,.46,.51,.69,.14,.19,.28,.38,.42,.56,.18,.24,.36,.47,.54,.71,.14,.18,.27,.35,.41,.53,.21,.27,.43,.53,.64,.8,.11,.14,.22,.27,.33,.41,.32,.39,.64,.77,.97,1.15,.14,.16,.29,.32,.43,.49,.2,.23,.4,.45,.6,.67,.16,.18,.32,.35,.49,.53,.19,.2,.38,.41,.57,.61,.17,.18,.34,.36,.51,.53,.19,.19,.38,.39,.57,.58,.18,.18,.35,.35,.53,.53,.19,.19,.38,.38,.58,.56,.18,.17,.36,.35,.54,.52,.2,.19,.4,.37,.6,.56,.18,.17,.36,.33,.54,.5,.22,.2,.44,.39,.66,.59,.2,.18,.41,.36,.61,.54,.34,.29,.67,.58,1.02,.86,.19,.16,.38,.31,.57,.46,.21,.17,.42,.34,.64,.51,.2,.16,.41,.32,.61,.47,.2,.16,.41,.32,.62,.47,.21,.16,.42,.31,.63,.47,.2,.15,.41,.3,.62,.45,.21,.15,.43,.31,.65,.46,.21,.15,.42,.29,.62,.43,.22,.15,.44,.3,.66,.45,.21,.14,.42,.28,.64,.42,.22,.14,.44,.29,.67,.43,.22,.14,.44,.27,.66,.41,.36,.22,.72,.44,1.08,.66,.28,.17,.56,.34,.84,.5,.23,.13,.47,.26,.7,.39,.22,.12,.44,.25,.66,.37,.24,.13,.48,.26,.72,.39,.22,.12,.44,.23,.66,.35,.24,.13,.49,.25,.73,.37,.22,.11,.44,.22,.66,.33,.25,.12,.5,.24,.75,.36,.22,.1,.44,.21,.66,.31,.25,.12,.5,.23,.76,.35,.22,.1,.45,.2,.67,.29,.26,.11,.51,.22,.77,.33,.23,.1,.47,.19,.71,.29,.54,.22,1.09,.43,1.64,.64,.16,.06,.32,.12,.48,.18,.27,.1,.53,.19,.8,.29,.23,.08,.46,.16,.68,.24,.27,.09,.54,.18,.81,.27,.23,.08,.46,.15,.7,.23,.27,.09,.54,.17,.81,.25,.23,.07,.47,.14,.7,.21,.27,.08,.55,.16,.82,.23,.24,.07,.47,.13,.71,.19,.28,.07,.55,.15,.83,.22,.24,.06,.48,.12,.72,.18,.28,.07,.56,.13,.83,.2,.24,.05,.48,.11,.72,.16,.27,.06,.54,.12,.82,.18,.29-.06,.58-.11,.87-.18-.28,.06-.56,.12-.84,.18,4.44,.9,9.03,1.38,13.74,1.38,37.93,0,68.68-30.75,68.68-68.68S140.21,6.04,102.28,6.04Z"/><g class="n"><path class="m" d="M65.97,20.6L47.56,6.04l1.2-1.52,19.59,15.49-8.28,18.29-1.77-.8,7.65-16.91Zm8.91,13.42l1.29,1.45,15-13.34L79.57,0l-1.72,.9,10.89,20.78-13.87,12.34ZM22.29,58.94l11.84,14.29,1.49-1.24-12.81-15.46L.3,67.35l.84,1.75,21.15-10.16Zm41.36-23.37l1.64,1.04,10.74-16.96L58.79,1.58l-1.4,1.34,16.2,16.97-9.93,15.68Zm5.56-1.17l1.48,1.26,13-15.3L69.12,.07l-1.58,1.13,13.68,19.06-12.02,14.15Zm-15.91,5.76l1.86,.55,5.65-19.26-21.55-12.62-.98,1.67,20.25,11.85-5.23,17.81Zm-24.62,4.91l7.45,17,1.78-.78-8.05-18.39-24.62,4.19,.33,1.91,23.13-3.94Zm-3.68,6.71l9.74,15.8,1.65-1.02-10.53-17.09L2.05,57.05l.59,1.85,22.36-7.12Zm19.61-4.35h1.94l.12-20.06-24.2-6.19-.48,1.88,22.73,5.81-.11,18.56Zm-3.5,4.47l1.92-.26-2.67-19.9-24.82-2.76-.21,1.93,23.32,2.59,2.47,18.4Zm-7.85-12.96l5.01,17.87,1.87-.52-5.42-19.33-24.96,.72,.06,1.94,23.45-.68Zm67.83,6.57l20.07-.58,5.34-24.4-1.89-.41-5.01,22.92-18.55,.53,.06,1.94Zm4.02,2.01l-.21,1.93,19.95,2.22,8.68-23.42-1.82-.67-8.16,22-18.45-2.05Zm3.49,4.48l-.48,1.88,19.45,4.98,11.86-21.98-1.71-.92-11.14,20.65-17.98-4.6Zm2.83,4.92l-.74,1.79,18.57,7.64,14.8-20.12-1.56-1.15-13.9,18.9-17.17-7.06Zm-30.88-22.51l1.07,1.61,16.71-11.12L89.92,1.39l-1.83,.65,7.89,22.09-15.45,10.28Zm47.76,52.37l-12.81-13.43-1.4,1.34,13.86,14.53,21.7-12.36-.96-1.68-20.39,11.61Zm-14.76-24.59l-.98,1.67,17.32,10.15,17.46-17.86-1.39-1.35-16.4,16.78-16.02-9.38Zm-27.45-26.59l.84,1.75,18.1-8.69-5.05-24.46-1.9,.39,4.74,22.98-16.73,8.03Zm28.82,32.11l-1.2,1.52,15.74,12.46,19.77-15.26-1.18-1.53-18.57,14.33-14.56-11.52Zm-23.48-30.15l.59,1.85,19.13-6.09-1.59-24.92-1.93,.12,1.5,23.41-17.69,5.63Zm5.33,4.59l19.79-3.36,1.89-24.9-1.93-.15-1.78,23.39-18.3,3.11,.32,1.91Zm-48.06,1.35l1.92,.28,2.92-19.86L30.43,14.42l-.74,1.79,21.7,8.92-2.7,18.36Zm49.99,64.19l-1.89-.41-4.29,19.61,22.38,11.08,.86-1.74-21.02-10.41,3.97-18.13Zm-4.82,3l-1.82-.67-6.98,18.82,20.62,14.09,1.09-1.6-19.37-13.24,6.46-17.4Zm9.18-6.64l-1.93-.15-1.52,20.02,23.71,7.86,.61-1.84-22.27-7.38,1.41-18.51Zm-19.83,10.5l-1.56-1.15-11.9,16.17,15.94,19.23,1.49-1.24-14.97-18.06,11-14.95Zm5.46-1.56l-1.71-.92-9.53,17.67,18.46,16.82,1.31-1.43-17.34-15.8,8.81-16.34Zm30.1-5.48l-6.24-17.48-1.83,.65,6.75,18.91,24.85-2.46-.19-1.93-23.35,2.31Zm4.14-6.44l-8.61-16.44-1.72,.9,9.32,17.78,24.27-5.9-.46-1.88-22.8,5.54Zm3.2-6.95l-10.82-15.08-1.58,1.13,11.7,16.31,23.21-9.22-.72-1.8-21.8,8.66Zm-19.26,5.71l-1.93,.12,1.28,20.04,24.57,4.48,.35-1.91-23.08-4.21-1.18-18.52Zm3.18-4.7l-1.9,.39,4.05,19.66,24.95,1.02,.08-1.94-23.44-.96-3.75-18.18Zm-32.44,20.2l-1.39-1.35-14.03,14.36,13.11,21.26,1.65-1.02-12.31-19.97,12.98-13.27Zm-5.68,0l-1.18-1.53-15.9,12.26,10.02,22.88,1.78-.78-9.41-21.49,14.7-11.34Zm-32.38-20.31l.61-1.84-19.06-6.32-13.36,21.1,1.64,1.04,12.55-19.82,17.62,5.84Zm-5.2-16.11l1.31-1.43-14.84-13.52L0,77.79l1.07,1.61,19.53-13,13.72,12.5Zm8.37,20.82l.35-1.91-19.75-3.61-10.29,22.76,1.77,.8,9.67-21.37,18.26,3.34Zm-5.65-9.82l.86-1.74-17.99-8.91L3.75,98.29l1.48,1.26,15.19-17.88,16.63,8.24Zm-1.75-5.4l1.09-1.6-16.57-11.33L1.16,88.17l1.29,1.45,17.53-15.59,15.32,10.47Zm11.19,19.45l.08-1.94-20.06-.82-7.03,23.97,1.86,.55,6.6-22.51,18.55,.76Zm14.34,8.99l-.72-1.8-18.66,7.41,3.33,24.75,1.92-.26-3.13-23.25,17.25-6.85Zm5.46,1.57l-.96-1.68-17.45,9.93,6.74,24.05,1.87-.52-6.33-22.59,16.13-9.18Zm-11.1-5.78l-19.51,4.74-.15,24.97h1.94l.14-23.45,18.04-4.38-.46-1.88Zm-4.54-3.06l-19.98,1.98-3.62,24.71,1.92,.28,3.4-23.21,18.47-1.83-.19-1.93Z"/></g></g></g></g></svg>