<?xml version="1.0" encoding="UTF-8"?>
<svg id="Layer_1" data-name="Layer 1" xmlns="http://www.w3.org/2000/svg" version="1.1" viewBox="0 0 553 173">
  <defs>
    <style>
      .cls-1, .cls-2 {
        fill: #0e61ee;
      }

      .cls-1, .cls-2, .cls-3, .cls-4, .cls-5, .cls-6 {
        stroke-width: 0px;
      }

      .cls-2, .cls-4, .cls-6 {
        fill-rule: evenodd;
      }

      .cls-3, .cls-6 {
        fill: #000;
      }

      .cls-4, .cls-5 {
        fill: #fff;
      }
    </style>
  </defs>
  <g id="feedzai_logo_color" data-name="feedzai logo color">
    <g id="Group">
      <path id="Path" class="cls-5" d="M30.3,61.9c1.9-2.2,4.5-3.3,7.6-3.3s2.7.1,3.9.5c1.2.3,2.3.6,3.4,1l6.8-15c-1.7-.8-3.7-1.4-5.9-1.7-2.3-.3-4.6-.5-6.9-.5-9.3,0-16.6,2.9-21.8,8.7-4.5,5.1-6.8,11.6-6.8,19.4v13.1H0v15.6h10.8v72.5h16.5v-72.5h16.5v-15.6h-16.5v-14.1c0-3,1-5.8,3-8.1Z"/>
      <path id="Shape" class="cls-4" d="M94.5,65.8c9.5,0,18.1,3.5,26,10.4,9.3,8.3,13.9,19.4,14,33.2v3.2h-63.8c0,5.7,2.3,10.5,7.2,14.4,4.7,3.9,10.1,5.9,16.3,5.9,8.7,0,16.2-4,22.2-12.1l14,7.8c-4.6,5.9-10.1,10.5-16.3,13.8-6.2,3.4-12.7,5.1-19.5,5.1-12.7,0-23.2-4.2-31.2-12.6-7.4-7.8-11.1-17.2-11.1-28.2s3.7-20.3,11.1-28.1c8-8.5,18.4-12.7,31.2-12.7ZM78.5,85.5c-4,3.2-6.6,7.6-7.9,13.3h44.4c-1.8-5.9-4.7-10.4-8.5-13.5-4-3-8.7-4.5-14.1-4.5s-10,1.6-13.8,4.7Z"/>
      <path id="Shape_2" data-name="Shape 2" class="cls-4" d="M188.8,65.8c9.5,0,18.2,3.5,26,10.4,9.2,8.3,13.9,19.4,13.9,33.2v3.2h-63.8c0,5.7,2.3,10.5,7.2,14.4,4.7,3.9,10.1,5.9,16.3,5.9,8.8,0,16.3-4,22.3-12.1l14,7.8c-4.6,5.9-10.1,10.5-16.3,13.8-6.2,3.4-12.7,5.1-19.5,5.1-12.7,0-23.2-4.2-31.2-12.6-7.4-7.8-11.1-17.2-11.1-28.2s3.7-20.3,11.1-28.1c8-8.5,18.4-12.7,31.2-12.7ZM172.8,85.5c-4,3.2-6.6,7.6-7.9,13.3h44.4c-1.8-5.9-4.7-10.4-8.5-13.5-4-3-8.8-4.5-14.1-4.5s-10,1.6-13.8,4.7Z"/>
      <path id="Shape_3" data-name="Shape 3" class="cls-4" d="M294.8,69.1c4.2,2.1,7.4,4.9,9.8,8.4l.3-32.4h16.5v100.4h-16.5v-9.4c-2.8,3.6-6.4,6.4-10.8,8.4-4.5,2.1-9.4,3.2-14.7,3.2-11.9,0-21.6-4.3-29.3-12.9-7-7.9-10.5-17.2-10.5-28s3.6-19.6,10.8-27.6c7.9-8.8,17.8-13.2,29.8-13.2s10.4,1,14.7,3.2ZM281.4,131.8c6.5,0,12.1-2.4,16.9-7.3,4.7-4.8,7-10.7,7.1-17.8,0-6.9-2.4-12.8-7.1-17.7-4.7-5-10.3-7.4-16.9-7.4s-12.6,2.4-17.3,7.2c-4.8,4.9-7.2,10.9-7.2,17.8s2.4,12.9,7.2,17.8c4.8,4.9,10.5,7.3,17.3,7.3Z"/>
      <path id="Path_2" data-name="Path 2" class="cls-5" d="M337.9,68v15.8h34l-37.1,61.6h63.9v-15.6h-36.4l37.2-61.9h-61.5Z"/>
      <path id="Shape_4" data-name="Shape 4" class="cls-4" d="M462.3,69.1c4.2,2.1,7.4,4.9,9.8,8.4l.3-9.5h16.5v77.5h-16.5v-9.4c-2.8,3.6-6.4,6.4-10.8,8.4-4.5,2.1-9.4,3.2-14.7,3.2-11.9,0-21.7-4.3-29.3-12.9-7-7.9-10.5-17.2-10.5-28s3.6-19.6,10.8-27.6c7.9-8.8,17.8-13.2,29.8-13.2s10.4,1,14.7,3.2ZM449,131.8c6.5,0,12.1-2.4,16.9-7.3,4.8-4.8,7.1-10.7,7.1-17.8s-2.4-12.8-7.1-17.7c-4.7-5-10.3-7.4-16.9-7.4s-12.6,2.4-17.3,7.2c-4.8,4.9-7.2,10.9-7.2,17.8s2.4,12.9,7.2,17.8c4.8,4.9,10.5,7.3,17.3,7.3Z"/>
      <rect id="Rectangle" class="cls-5" x="510.2" y="68" width="16.5" height="77.5"/>
    </g>
    <path id="Path_3" data-name="Path 3" class="cls-5" d="M552.9,0l-5.6,51.1-12.9-12c-2,1.2-30.9,17.8-51.9,1.2,0,0,16.5,4.9,33.8-18l-14-13,50.6-9.2Z"/>
  </g>
  <g id="feedzai_logo_color-2" data-name="feedzai logo color">
    <g id="Group-2" data-name="Group">
      <path id="Path-2" data-name="Path" class="cls-3" d="M30.3-154.1c1.9-2.2,4.5-3.3,7.6-3.3s2.7.1,3.9.5c1.2.3,2.3.6,3.4,1l6.8-15c-1.7-.8-3.7-1.4-5.9-1.7-2.3-.3-4.6-.5-6.9-.5-9.3,0-16.6,2.9-21.8,8.7-4.5,5.1-6.8,11.6-6.8,19.4v13.1H0v15.6h10.8V-43.8h16.5v-72.5h16.5v-15.6h-16.5v-14.1c0-3,1-5.8,3-8.1Z"/>
      <path id="Shape-2" data-name="Shape" class="cls-6" d="M94.5-150.2c9.5,0,18.1,3.5,26,10.4,9.3,8.3,13.9,19.4,14,33.2v3.2h-63.8c0,5.7,2.3,10.5,7.2,14.4,4.7,3.9,10.1,5.9,16.3,5.9,8.7,0,16.2-4,22.2-12.1l14,7.8c-4.6,5.9-10.1,10.5-16.3,13.8-6.2,3.4-12.7,5.1-19.5,5.1-12.7,0-23.2-4.2-31.2-12.6-7.4-7.8-11.1-17.2-11.1-28.2s3.7-20.3,11.1-28.1c8-8.5,18.4-12.7,31.2-12.7ZM78.5-130.5c-4,3.2-6.6,7.6-7.9,13.3h44.4c-1.8-5.9-4.7-10.4-8.5-13.5-4-3-8.7-4.5-14.1-4.5s-10,1.6-13.8,4.7Z"/>
      <path id="Shape_2-2" data-name="Shape 2" class="cls-6" d="M188.8-150.2c9.5,0,18.2,3.5,26,10.4,9.2,8.3,13.9,19.4,13.9,33.2v3.2h-63.8c0,5.7,2.3,10.5,7.2,14.4,4.7,3.9,10.1,5.9,16.3,5.9,8.8,0,16.3-4,22.3-12.1l14,7.8c-4.6,5.9-10.1,10.5-16.3,13.8-6.2,3.4-12.7,5.1-19.5,5.1-12.7,0-23.2-4.2-31.2-12.6-7.4-7.8-11.1-17.2-11.1-28.2s3.7-20.3,11.1-28.1c8-8.5,18.4-12.7,31.2-12.7ZM172.8-130.5c-4,3.2-6.6,7.6-7.9,13.3h44.4c-1.8-5.9-4.7-10.4-8.5-13.5-4-3-8.8-4.5-14.1-4.5s-10,1.6-13.8,4.7Z"/>
      <path id="Shape_3-2" data-name="Shape 3" class="cls-6" d="M294.8-146.9c4.2,2.1,7.4,4.9,9.8,8.4l.3-32.4h16.5v100.4h-16.5v-9.4c-2.8,3.6-6.4,6.4-10.8,8.4-4.5,2.1-9.4,3.2-14.7,3.2-11.9,0-21.6-4.3-29.3-12.9-7-7.9-10.5-17.2-10.5-28s3.6-19.6,10.8-27.6c7.9-8.8,17.8-13.2,29.8-13.2s10.4,1,14.7,3.2ZM281.4-84.2c6.5,0,12.1-2.4,16.9-7.3,4.7-4.8,7-10.7,7.1-17.8,0-6.9-2.4-12.8-7.1-17.7-4.7-5-10.3-7.4-16.9-7.4s-12.6,2.4-17.3,7.2c-4.8,4.9-7.2,10.9-7.2,17.8s2.4,12.9,7.2,17.8c4.8,4.9,10.5,7.3,17.3,7.3Z"/>
      <path id="Path_2-2" data-name="Path 2" class="cls-3" d="M337.9-148v15.8h34l-37.1,61.6h63.9v-15.6h-36.4l37.2-61.9h-61.5Z"/>
      <path id="Shape_4-2" data-name="Shape 4" class="cls-6" d="M462.3-146.9c4.2,2.1,7.4,4.9,9.8,8.4l.3-9.5h16.5v77.5h-16.5v-9.4c-2.8,3.6-6.4,6.4-10.8,8.4-4.5,2.1-9.4,3.2-14.7,3.2-11.9,0-21.7-4.3-29.3-12.9-7-7.9-10.5-17.2-10.5-28s3.6-19.6,10.8-27.6c7.9-8.8,17.8-13.2,29.8-13.2s10.4,1,14.7,3.2ZM449-84.2c6.5,0,12.1-2.4,16.9-7.3,4.8-4.8,7.1-10.7,7.1-17.8s-2.4-12.8-7.1-17.7c-4.7-5-10.3-7.4-16.9-7.4s-12.6,2.4-17.3,7.2c-4.8,4.9-7.2,10.9-7.2,17.8s2.4,12.9,7.2,17.8c4.8,4.9,10.5,7.3,17.3,7.3Z"/>
      <rect id="Rectangle-2" data-name="Rectangle" class="cls-3" x="510.2" y="-148" width="16.5" height="77.5"/>
    </g>
    <path id="Path_3-2" data-name="Path 3" class="cls-3" d="M552.9-216l-5.6,51.1-12.9-12c-2,1.2-30.9,17.8-51.9,1.2,0,0,16.5,4.9,33.8-18l-14-13,50.6-9.2Z"/>
  </g>
  <g id="feedzai_logo_color-3" data-name="feedzai logo color">
    <g id="Group-3" data-name="Group">
      <path id="Path-3" data-name="Path" class="cls-1" d="M30.3-363.1c1.9-2.2,4.5-3.3,7.6-3.3s2.7.1,3.9.5c1.2.3,2.3.6,3.4,1l6.8-15c-1.7-.8-3.7-1.4-5.9-1.7-2.3-.3-4.6-.5-6.9-.5-9.3,0-16.6,2.9-21.8,8.7-4.5,5.1-6.8,11.6-6.8,19.4v13.1H0v15.6h10.8v72.5h16.5v-72.5h16.5v-15.6h-16.5v-14.1c0-3,1-5.8,3-8.1Z"/>
      <path id="Shape-3" data-name="Shape" class="cls-2" d="M94.5-359.2c9.5,0,18.1,3.5,26,10.4,9.3,8.3,13.9,19.4,14,33.2v3.2h-63.8c0,5.7,2.3,10.5,7.2,14.4,4.7,3.9,10.1,5.9,16.3,5.9,8.7,0,16.2-4,22.2-12.1l14,7.8c-4.6,5.9-10.1,10.5-16.3,13.8-6.2,3.4-12.7,5.1-19.5,5.1-12.7,0-23.2-4.2-31.2-12.6-7.4-7.8-11.1-17.2-11.1-28.2s3.7-20.3,11.1-28.1c8-8.5,18.4-12.7,31.2-12.7ZM78.5-339.5c-4,3.2-6.6,7.6-7.9,13.3h44.4c-1.8-5.9-4.7-10.4-8.5-13.5-4-3-8.7-4.5-14.1-4.5s-10,1.6-13.8,4.7Z"/>
      <path id="Shape_2-3" data-name="Shape 2" class="cls-2" d="M188.8-359.2c9.5,0,18.2,3.5,26,10.4,9.2,8.3,13.9,19.4,13.9,33.2v3.2h-63.8c0,5.7,2.3,10.5,7.2,14.4,4.7,3.9,10.1,5.9,16.3,5.9,8.8,0,16.3-4,22.3-12.1l14,7.8c-4.6,5.9-10.1,10.5-16.3,13.8-6.2,3.4-12.7,5.1-19.5,5.1-12.7,0-23.2-4.2-31.2-12.6-7.4-7.8-11.1-17.2-11.1-28.2s3.7-20.3,11.1-28.1c8-8.5,18.4-12.7,31.2-12.7ZM172.8-339.5c-4,3.2-6.6,7.6-7.9,13.3h44.4c-1.8-5.9-4.7-10.4-8.5-13.5-4-3-8.8-4.5-14.1-4.5s-10,1.6-13.8,4.7Z"/>
      <path id="Shape_3-3" data-name="Shape 3" class="cls-2" d="M294.8-355.9c4.2,2.1,7.4,4.9,9.8,8.4l.3-32.4h16.5v100.4h-16.5v-9.4c-2.8,3.6-6.4,6.4-10.8,8.4-4.5,2.1-9.4,3.2-14.7,3.2-11.9,0-21.6-4.3-29.3-12.9-7-7.9-10.5-17.2-10.5-28s3.6-19.6,10.8-27.6c7.9-8.8,17.8-13.2,29.8-13.2s10.4,1,14.7,3.2ZM281.4-293.2c6.5,0,12.1-2.4,16.9-7.3,4.7-4.8,7-10.7,7.1-17.8,0-6.9-2.4-12.8-7.1-17.7-4.7-5-10.3-7.4-16.9-7.4s-12.6,2.4-17.3,7.2c-4.8,4.9-7.2,10.9-7.2,17.8s2.4,12.9,7.2,17.8c4.8,4.9,10.5,7.3,17.3,7.3Z"/>
      <path id="Path_2-3" data-name="Path 2" class="cls-1" d="M337.9-357v15.8h34l-37.1,61.6h63.9v-15.6h-36.4l37.2-61.9h-61.5Z"/>
      <path id="Shape_4-3" data-name="Shape 4" class="cls-2" d="M462.3-355.9c4.2,2.1,7.4,4.9,9.8,8.4l.3-9.5h16.5v77.5h-16.5v-9.4c-2.8,3.6-6.4,6.4-10.8,8.4-4.5,2.1-9.4,3.2-14.7,3.2-11.9,0-21.7-4.3-29.3-12.9-7-7.9-10.5-17.2-10.5-28s3.6-19.6,10.8-27.6c7.9-8.8,17.8-13.2,29.8-13.2s10.4,1,14.7,3.2ZM449-293.2c6.5,0,12.1-2.4,16.9-7.3,4.8-4.8,7.1-10.7,7.1-17.8s-2.4-12.8-7.1-17.7c-4.7-5-10.3-7.4-16.9-7.4s-12.6,2.4-17.3,7.2c-4.8,4.9-7.2,10.9-7.2,17.8s2.4,12.9,7.2,17.8c4.8,4.9,10.5,7.3,17.3,7.3Z"/>
      <rect id="Rectangle-3" data-name="Rectangle" class="cls-1" x="510.2" y="-357" width="16.5" height="77.5"/>
    </g>
    <path id="Path_3-3" data-name="Path 3" class="cls-1" d="M552.9-425l-5.6,51.1-12.9-12c-2,1.2-30.9,17.8-51.9,1.2,0,0,16.5,4.9,33.8-18l-14-13,50.6-9.2Z"/>
  </g>
</svg>