<svg width="1224" height="257" viewBox="0 0 1224 257" fill="none" xmlns="http://www.w3.org/2000/svg">
<path fill-rule="evenodd" clip-rule="evenodd" d="M407.202 100.555H377.48L332.591 143.949V55.0714H310.165V201.83H332.591V167.434L350.359 151.706L385.823 201.83H413.413L366.394 137.254L407.202 100.555ZM42.8706 55.2341L24.48 74.2333V182.755L42.8693 201.672H212.281L230.67 182.755V74.1504L212.281 55.2341H42.8706ZM47.6896 83.1441L54.8757 75.9131H200.498L207.419 83.1561V173.876L200.498 181.119H54.8757L47.6896 173.888V83.1441ZM171.878 117.153C171.878 130.954 164.131 142.142 154.575 142.142C145.019 142.142 137.273 130.954 137.273 117.153C137.273 103.352 145.019 92.1643 154.575 92.1643C164.131 92.1643 171.878 103.352 171.878 117.153ZM103.157 142.141C112.713 142.141 120.46 130.954 120.46 117.153C120.46 103.352 112.713 92.1641 103.157 92.1641C93.6014 92.1641 85.8548 103.352 85.8548 117.153C85.8548 130.954 93.6014 142.141 103.157 142.141ZM629.183 111.89L640.487 100.554H680.464L698.413 118.585V201.83H675.986V125.103L669.775 119.01H640.053L631.964 126.98V201.83H609.501V125.103L603.29 119.01H577.432L565.479 130.948V201.83H543.016V100.554H564.179V114.405L577.649 100.554H618.06L629.183 111.89ZM426.187 118.585L444.135 100.554H505.492L523.441 118.585V183.799L505.492 201.83H444.135L426.187 183.799V118.585ZM494.803 183.374L500.797 177.281H500.834V125.103L494.839 119.01H454.861L448.866 125.103V177.281L454.825 183.374H494.803ZM1038.63 100.554L1020.68 118.585V183.799L1038.63 201.83H1099.99L1117.94 183.799V118.585L1099.99 100.554H1038.63ZM1095.29 177.281L1089.3 183.374H1049.32L1043.33 177.281V125.103L1049.32 119.01H1089.3L1095.29 125.103V177.281ZM1158.68 115.645L1173.63 100.554H1199.52V121.525H1171.93L1159.98 133.286V201.83H1137.51V100.554H1158.68V115.645ZM735.903 100.554L717.954 118.585V183.799L735.903 201.83H868.512L886.46 183.799V118.585L868.512 100.554H735.903ZM863.781 177.281L857.786 183.374H746.556L740.561 177.281V125.103L746.556 119.01H857.786L863.781 125.103V177.281ZM966.521 100.555L978.908 113.13V55.0714H1001.33V201.83H978.908V189.468L966.521 201.83H923.763L905.815 183.8V118.586L923.763 100.555H966.521ZM966.955 183.375L978.908 171.65V130.948L966.955 119.011H934.453L928.241 125.103V177.282L934.453 183.375H966.955Z" fill="white"/>
</svg>
