<svg width="3495" height="4762" viewBox="0 0 3495 4762" fill="none" xmlns="http://www.w3.org/2000/svg">
<g clip-path="url(#clip0_8650_5190)">
<path d="M1163.14 501.882L1164.53 503.28H1601.41L1600.01 501.882H2331.86V0H1163.14V501.882Z" fill="#93EAFF"/>
<path d="M1241.42 789.892L1288.26 645.898C1291.75 634.714 1286.16 623.53 1274.98 620.035C1263.79 616.54 1252.61 622.132 1249.11 633.316L1198.09 790.591C1199.48 790.591 1201.58 790.591 1202.98 790.591H1241.42V789.892Z" fill="#0086FF"/>
<path d="M1687.39 643.765C1690.88 632.581 1685.29 621.397 1674.11 617.902C1662.92 614.407 1651.74 619.999 1648.24 631.183L1589.53 812.923L1628.67 826.903L1687.39 643.765Z" fill="#0086FF"/>
<path d="M1595.82 859.093C1596.52 859.093 1597.21 859.093 1597.91 859.792L1592.32 857.695C1593.02 858.394 1594.42 859.093 1595.82 859.093Z" fill="#0086FF"/>
<path d="M1592.32 857.67C1583.93 852.777 1579.04 842.991 1582.54 833.205L1589.53 812.934L1528.71 791.265C1526.62 790.566 1523.82 789.867 1521.72 789.867H1452.52L1493.76 831.108H1518.23L1592.32 857.67Z" fill="#93EAFF"/>
<path d="M1206.47 830.409C1217.66 833.904 1228.84 828.312 1232.34 817.128L1241.42 789.867H1202.98C1201.58 789.867 1199.48 789.867 1198.09 789.867L1193.19 803.847C1189.7 815.031 1195.99 826.914 1206.47 830.409Z" fill="#93EAFF"/>
<path d="M1592.32 857.693L1597.91 859.79C1608.4 861.887 1618.88 856.295 1621.68 845.81L1627.97 826.238L1588.83 812.258L1581.84 832.529C1579.04 843.014 1583.24 853.499 1592.32 857.693Z" fill="#93EAFF"/>
<path d="M496.989 2993.12C496.989 2993.12 496.989 2992.42 496.989 2991.72H496.29V2327.67H0V3495H1163.14V2993.12H496.989Z" fill="#0086FF"/>
<path d="M2998.71 2991.73H2998.01V2993.13H2331.86V3495.01H3495V2328.38H2998.71V2991.73Z" fill="#0086FF"/>
<path d="M496.29 1167.33V503.28H496.989V501.882H1163.14V0H0V1167.33H496.29Z" fill="#0086FF"/>
<path d="M2331.86 0V501.882H2998.01V503.28H2998.71V1167.33H3495V0H2331.86Z" fill="#0086FF"/>
<path d="M1888 2991.72L1889.4 2993.12H1163.14V3495H2331.86V2991.72H1888Z" fill="#93EAFF"/>
<path d="M2998.71 2327.67H3495V1167.33C3495 1167.33 3017.58 1167.33 2998.71 1167.33V2327.67Z" fill="#93EAFF"/>
<path d="M3495 2327.67H2998.71V2328.37H3495V2327.67Z" fill="#93EAFF"/>
<path d="M1634.26 2733.8L1655.23 2754.07L1659.43 2751.27L1634.26 2733.8Z" fill="white"/>
<path d="M2993.12 2328.37H2998.71V2327.67L2993.12 2328.37C2992.42 2328.37 2992.42 2327.67 2993.12 2328.37Z" fill="white"/>
<path d="M911.496 2150.15C898.215 2192.09 920.583 2236.82 962.523 2250.11C973.707 2253.6 984.891 2248.01 988.386 2236.82C991.881 2225.64 986.289 2214.46 975.105 2210.96C954.834 2204.67 944.349 2183 950.64 2162.73L976.503 2082.35L943.65 2049.49L911.496 2150.15Z" fill="#0086FF"/>
<path d="M1005.16 1929.24C993.978 1925.74 982.794 1931.33 979.299 1942.52L944.349 2049.47L977.202 2082.32L1018.44 1955.1C1021.94 1944.62 1015.65 1932.73 1005.16 1929.24Z" fill="#0086FF"/>
<path d="M847.887 1965.59L817.131 2060.66C803.85 2102.6 826.218 2147.33 868.158 2160.61C879.342 2164.11 890.526 2158.52 894.021 2147.33C897.516 2136.15 891.924 2124.96 880.74 2121.47C860.469 2115.18 849.984 2093.51 856.275 2073.24L883.536 1988.66L852.081 1957.2C849.984 1960 848.586 1962.8 847.887 1965.59Z" fill="#0086FF"/>
<path d="M873.75 1952.29C866.061 1949.5 857.673 1952.29 852.081 1957.88L883.536 1989.34L887.031 1978.85C890.526 1967.67 884.235 1955.79 873.75 1952.29Z" fill="#0086FF"/>
<path d="M1019.84 1467.18C1021.24 1465.09 1022.64 1462.99 1023.34 1460.89L1075.06 1302.22H1031.72L985.59 1444.81L896.817 1560.15L926.175 1589.51L1019.84 1467.18Z" fill="#0086FF"/>
<path d="M738.144 1922.25L761.211 1939.03C770.298 1946.02 772.395 1958.6 766.104 1967.69C759.114 1976.77 746.532 1978.87 737.445 1972.58L725.562 1964.19C715.077 2004.73 738.144 2046.67 777.987 2059.25C789.171 2062.75 800.355 2057.16 803.85 2045.97C807.345 2034.79 801.753 2023.61 790.569 2020.11C770.298 2013.82 759.813 1992.15 766.104 1971.88L790.569 1895.69L757.716 1862.84L738.144 1922.25Z" fill="#0086FF"/>
<path d="M914.292 1605.58L926.175 1590.2L896.817 1560.84L892.623 1566.44L909.399 1578.32C917.088 1584.61 919.185 1596.49 914.292 1605.58Z" fill="#0086FF"/>
<path d="M910.797 1609.77C903.807 1616.76 892.623 1617.46 884.235 1611.87L866.76 1599.29L827.616 1650.32C826.218 1652.41 824.82 1654.51 824.121 1656.61L757.017 1862.81L789.87 1895.67L862.566 1672.68L910.797 1609.77Z" fill="#0086FF"/>
<path d="M1481.18 1271.47C1481.18 1272.17 1481.88 1272.87 1481.88 1272.87C1481.88 1272.17 1481.18 1272.17 1481.18 1271.47Z" fill="#0086FF"/>
<path d="M1463.01 1302.23H1434.35L1318.31 1659.42C1316.22 1665.71 1317.61 1672 1321.11 1677.6L1394.5 1783.15L1397.3 1927.14L1439.24 1957.9L1435.05 1776.16C1435.05 1771.96 1433.65 1768.47 1431.55 1764.97L1360.25 1662.22L1423.16 1468.6L1413.38 1472.09C1411.28 1472.79 1408.48 1473.49 1406.39 1473.49C1398 1473.49 1389.61 1467.9 1386.82 1459.51C1383.32 1449.02 1388.91 1437.14 1399.4 1432.95L1438.54 1418.97L1481.18 1287.55C1481.18 1286.86 1481.18 1286.86 1481.18 1286.16C1481.18 1295.94 1472.79 1302.23 1463.01 1302.23Z" fill="#0086FF"/>
<path d="M1470 1262.41H1469.3C1470 1262.41 1470.7 1262.41 1470.7 1263.11C1470 1262.41 1470 1262.41 1470 1262.41Z" fill="#0086FF"/>
<path d="M1472.79 1263.12C1473.49 1263.12 1474.19 1263.82 1474.19 1263.82C1473.49 1263.82 1472.79 1263.82 1472.79 1263.12Z" fill="#0086FF"/>
<path d="M1475.59 1265.19C1476.29 1265.89 1476.29 1265.89 1476.99 1266.59C1476.99 1265.89 1476.29 1265.89 1475.59 1265.19Z" fill="#0086FF"/>
<path d="M1478.39 1267.98C1479.08 1268.68 1479.08 1268.68 1479.78 1269.37C1479.78 1269.37 1479.08 1268.68 1478.39 1267.98Z" fill="#0086FF"/>
<path d="M1262.39 1846.07C1261.7 1846.77 1261 1846.77 1261 1847.47C1261 1847.47 1261.7 1846.77 1262.39 1846.07Z" fill="#0086FF"/>
<path d="M1254.71 1855.84C1254.71 1856.54 1254.71 1856.54 1254.01 1856.54L1163.14 2137.54C1163.14 2174.59 1163.14 2207.44 1163.14 2231.21L1173.62 2238.9L1284.76 1896.39L1261.7 1879.61C1254.01 1874.72 1251.21 1864.23 1254.71 1855.84Z" fill="#0086FF"/>
<path d="M1257.5 1850.96C1258.2 1850.26 1258.2 1849.56 1258.9 1849.56C1258.9 1849.56 1258.2 1850.26 1257.5 1850.96Z" fill="#0086FF"/>
<path d="M1131.68 2236.81L1117 2281.55C1110.71 2301.82 1089.04 2312.31 1068.77 2306.02C1048.5 2299.72 1038.01 2278.06 1044.31 2257.78L1070.87 2176L1038.02 2143.15L1005.16 2245.2C991.881 2287.14 1014.25 2331.88 1056.19 2345.16C1098.13 2358.44 1142.86 2336.07 1156.15 2294.13L1160.34 2280.15L1137.27 2263.38C1128.88 2257.78 1126.79 2245.9 1131.68 2236.81Z" fill="#0086FF"/>
<path d="M1271.48 1843.27C1272.18 1843.27 1272.88 1843.27 1273.58 1843.27C1272.88 1842.57 1272.18 1842.57 1271.48 1843.27Z" fill="#0086FF"/>
<path d="M1279.87 1843.28C1280.57 1843.28 1281.27 1843.98 1281.27 1843.98C1281.27 1843.98 1280.57 1843.98 1280.57 1843.28C1279.87 1843.98 1279.87 1843.98 1279.87 1843.28Z" fill="#0086FF"/>
<path d="M1285.46 1846.06C1284.76 1845.36 1284.06 1845.36 1283.36 1845.36C1284.06 1845.36 1284.76 1846.06 1285.46 1846.06Z" fill="#0086FF"/>
<path d="M1277.77 1843.27C1277.07 1843.27 1276.37 1843.27 1275.68 1843.27C1276.37 1842.57 1277.07 1843.27 1277.77 1843.27Z" fill="#0086FF"/>
<path d="M1131.68 2236.78C1132.38 2236.08 1132.38 2235.38 1133.08 2234.68C1140.07 2225.6 1152.65 2223.5 1161.74 2229.79L1163.14 2231.19C1163.14 2207.42 1163.14 2174.57 1163.14 2137.52L1131.68 2236.78Z" fill="#0086FF"/>
<path d="M1149.86 1932.05C1153.35 1920.87 1147.76 1909.69 1136.57 1906.19C1125.39 1902.7 1114.21 1908.29 1110.71 1919.47L1038.02 2143.15L1070.87 2176L1149.86 1932.05Z" fill="#0086FF"/>
<path d="M2004.73 2666C2018.71 2660.4 2031.29 2651.32 2040.38 2638.74C2047.37 2629.65 2045.27 2616.37 2035.49 2610.08C2026.4 2603.09 2013.12 2605.18 2006.83 2614.97C1997.74 2627.55 1982.36 2633.14 1967.69 2629.65C1986.56 2648.52 1998.44 2660.4 1998.44 2660.4L2004.73 2666Z" fill="#93EAFF"/>
<path d="M1776.86 2494.74C1767.77 2487.75 1754.49 2489.85 1748.2 2499.63C1741.21 2508.72 1743.31 2522 1753.09 2528.29L1929.24 2656.21C1951.61 2672.99 1980.27 2675.08 2004.73 2666L1998.44 2660.4C1998.44 2660.4 1986.56 2648.52 1967.68 2629.65C1962.79 2628.25 1957.9 2626.15 1953.7 2623.36L1776.86 2494.74Z" fill="#93EAFF"/>
<path d="M1921.55 2672.99C1912.46 2666 1899.18 2668.1 1892.89 2677.88C1880.31 2694.66 1856.54 2698.85 1839.77 2686.27L1758.68 2627.55C1749.6 2620.56 1736.32 2622.66 1730.02 2632.45C1723.03 2641.53 1725.13 2654.81 1734.92 2661.11L1816 2719.82C1851.65 2745.68 1901.28 2738 1927.14 2702.35C1933.43 2692.56 1931.34 2679.28 1921.55 2672.99Z" fill="#93EAFF"/>
<path d="M1236.53 2336.04L1228.84 2327.65H1295.95L1173.62 2238.88L1160.34 2280.82L1236.53 2336.04Z" fill="#93EAFF"/>
<path d="M1409.18 2515.68L1391.71 2528.26L1428.06 2581.38C1429.45 2583.48 1430.85 2584.88 1432.95 2586.28L1634.96 2733.07L1413.38 2511.48C1411.98 2513.58 1410.58 2514.98 1409.18 2515.68Z" fill="#93EAFF"/>
<path d="M1308.53 2407.34L1367.94 2494.72L1384.02 2482.84L1308.53 2407.34Z" fill="#93EAFF"/>
<path d="M1412.68 2512.2L1634.26 2733.78L1658.73 2751.95L1681.79 2735.18C1690.88 2728.19 1704.16 2730.28 1710.45 2740.07C1717.44 2749.16 1715.35 2762.44 1705.56 2768.73L1693.68 2777.12C1728.63 2799.49 1775.46 2791.1 1800.62 2756.85C1807.61 2747.76 1805.52 2734.48 1795.73 2728.19C1786.64 2721.2 1773.36 2723.29 1767.07 2733.08C1754.49 2749.86 1730.72 2754.05 1713.95 2741.47L1459.51 2556.23L1414.78 2491.23C1418.97 2497.52 1417.57 2505.91 1412.68 2512.2Z" fill="#93EAFF"/>
<path d="M1236.53 2336.07L1281.27 2368.92L1307.83 2408.07L1383.32 2483.56L1384.02 2482.86C1392.41 2476.57 1404.29 2477.97 1411.28 2485.66L1312.72 2342.36C1311.32 2340.27 1309.93 2338.87 1307.83 2337.47L1295.25 2328.38H1228.14L1236.53 2336.07Z" fill="#93EAFF"/>
<path d="M1163.14 2268.27L1131.68 2236.82C1126.79 2245.91 1128.88 2257.79 1137.27 2263.38L1160.34 2280.16L1173.62 2238.92L1163.14 2231.23C1163.14 2254.29 1163.14 2268.27 1163.14 2268.27Z" fill="#93EAFF"/>
<path d="M1133.08 2234.71C1132.38 2235.41 1132.38 2236.11 1131.68 2236.81L1163.14 2268.26C1163.14 2268.26 1163.14 2254.28 1163.14 2231.22L1161.74 2229.82C1152.65 2223.53 1139.37 2225.63 1133.08 2234.71Z" fill="#93EAFF"/>
<path d="M738.144 1922.25L615.12 1833.48C606.033 1826.49 592.752 1828.58 586.461 1838.37C579.471 1847.46 581.568 1860.74 591.354 1867.03L724.863 1964.19C725.562 1962.79 725.562 1960.69 726.261 1959.3L738.144 1922.25Z" fill="#93EAFF"/>
<path d="M765.405 1967.68C772.395 1958.6 770.298 1945.32 760.512 1939.03L737.445 1922.25L725.562 1958.6C724.863 1960 724.863 1962.09 724.164 1963.49L736.047 1971.88C745.833 1979.57 758.415 1977.47 765.405 1967.68Z" fill="#93EAFF"/>
<path d="M736.746 1453.23C727.659 1446.24 714.378 1448.34 708.087 1458.13C701.097 1467.21 703.194 1480.49 712.98 1486.79L867.459 1598.63L892.623 1565.77L736.746 1453.23Z" fill="#93EAFF"/>
<path d="M912.894 1607.01C913.593 1606.31 913.593 1605.61 913.593 1604.91L910.098 1609.11C911.496 1609.11 912.195 1607.71 912.894 1607.01Z" fill="#93EAFF"/>
<path d="M910.797 1609.81L914.292 1605.61C919.884 1596.53 917.088 1584.64 908.7 1578.35L891.924 1566.47L866.76 1599.32L884.235 1611.9C892.623 1617.5 903.807 1616.8 910.797 1609.81Z" fill="#93EAFF"/>
<path d="M1267.99 1843.94C1267.29 1843.94 1266.59 1844.64 1265.89 1844.64C1266.59 1843.94 1267.29 1843.94 1267.99 1843.94Z" fill="#93EAFF"/>
<path d="M1259.6 1848.84C1260.3 1848.14 1260.3 1848.14 1261 1847.44C1260.3 1848.14 1259.6 1848.14 1259.6 1848.84Z" fill="#93EAFF"/>
<path d="M1263.79 1845.36C1263.09 1845.36 1262.39 1846.06 1262.39 1846.06C1263.09 1846.06 1263.79 1845.36 1263.79 1845.36Z" fill="#93EAFF"/>
<path d="M1256.8 1852.33C1256.8 1851.63 1257.5 1851.63 1257.5 1850.93L1256.8 1851.63C1256.8 1851.63 1256.8 1851.63 1256.8 1852.33Z" fill="#93EAFF"/>
<path d="M1283.36 1845.35C1282.66 1845.35 1281.97 1844.65 1281.27 1844.65C1281.97 1844.65 1282.66 1844.65 1283.36 1845.35Z" fill="#93EAFF"/>
<path d="M1255.4 1853.77C1255.4 1854.47 1254.7 1855.17 1254.7 1855.87C1255.4 1855.17 1255.4 1854.47 1255.4 1853.77Z" fill="#93EAFF"/>
<path d="M1279.87 1843.28C1279.17 1843.28 1278.47 1842.58 1277.77 1842.58C1278.47 1843.28 1279.17 1843.28 1279.87 1843.28Z" fill="#93EAFF"/>
<path d="M1736.32 2042.49C1732.12 2041.09 1728.63 2041.09 1724.43 2042.49L1604.9 2078.14L1439.94 1958.61V1969.09C1439.94 1971.19 1439.94 1973.99 1439.24 1976.08C1436.45 1984.47 1428.76 1990.06 1420.37 1990.06C1409.18 1990.06 1399.4 1980.98 1399.4 1969.79L1398.7 1927.85L1286.86 1846.77L1286.16 1846.07C1293.85 1850.96 1297.34 1860.75 1294.55 1869.84L1285.46 1897.1L1589.53 2117.98C1594.42 2121.48 1601.41 2122.87 1607.7 2120.78L1730.72 2083.73L1869.13 2125.67L1911.07 2094.91L1736.32 2042.49Z" fill="#93EAFF"/>
<path d="M1398.7 1969.76C1398.7 1980.94 1408.49 1990.03 1419.67 1990.03C1428.76 1990.03 1436.45 1983.74 1438.54 1976.05C1439.24 1973.95 1439.94 1971.86 1439.24 1969.06V1958.58L1397.3 1927.82L1398.7 1969.76Z" fill="#93EAFF"/>
<path d="M1285.46 1846.08C1284.76 1845.38 1284.06 1845.38 1283.36 1845.38C1282.67 1845.38 1281.97 1844.68 1281.27 1844.68C1280.57 1844.68 1279.87 1843.98 1279.87 1843.98C1279.17 1843.98 1278.47 1843.28 1277.77 1843.28C1277.07 1843.28 1276.37 1843.28 1275.67 1843.28C1274.98 1843.28 1274.28 1843.28 1273.58 1843.28C1272.88 1843.28 1272.18 1843.28 1271.48 1843.28C1270.78 1843.28 1270.08 1843.28 1269.38 1843.28C1268.69 1843.28 1267.99 1843.28 1267.29 1843.98C1266.59 1843.98 1265.89 1844.68 1265.19 1844.68C1264.49 1844.68 1263.79 1845.38 1263.09 1845.38C1262.39 1845.38 1261.69 1846.08 1261.69 1846.08C1261 1846.78 1260.3 1846.78 1260.3 1847.48C1259.6 1848.17 1259.6 1848.17 1258.9 1848.87C1258.2 1849.57 1257.5 1850.27 1257.5 1850.27C1256.8 1850.97 1256.8 1850.97 1256.8 1851.67C1256.1 1852.37 1256.1 1853.07 1255.4 1853.77C1255.4 1854.47 1254.7 1855.16 1254.7 1855.86C1251.21 1864.25 1254.01 1874.04 1261.69 1880.33L1284.76 1897.1L1293.85 1869.84C1296.65 1860.76 1293.15 1850.97 1285.46 1846.08Z" fill="#93EAFF"/>
<path d="M1754.49 2208.82C1755.19 2208.12 1755.19 2208.12 1755.89 2207.42C1755.19 2207.42 1754.49 2208.12 1754.49 2208.82Z" fill="#93EAFF"/>
<path d="M1751.69 2210.96C1751.69 2210.96 1751.69 2210.96 1752.39 2210.26C1752.39 2210.26 1752.39 2210.96 1751.69 2210.96Z" fill="#93EAFF"/>
<path d="M1748.2 2219.35C1748.2 2218.65 1748.2 2217.95 1748.9 2217.25C1748.9 2217.95 1748.9 2218.65 1748.2 2219.35Z" fill="#93EAFF"/>
<path d="M1749.6 2215.16C1749.6 2214.46 1750.3 2213.76 1750.3 2213.76C1750.3 2214.46 1749.6 2214.46 1749.6 2215.16Z" fill="#93EAFF"/>
<path d="M1754.49 2237.49C1753.79 2236.79 1753.79 2236.09 1753.09 2236.09C1753.09 2236.79 1753.79 2237.49 1754.49 2237.49Z" fill="#93EAFF"/>
<path d="M2078.83 2472.36C2071.84 2463.28 2073.93 2450 2083.72 2443.7L2095.6 2434.62L1804.12 2222.82L1781.05 2239.6C1773.36 2245.19 1762.88 2244.49 1755.89 2238.9L1756.59 2239.6L2117.97 2501.72C2134.75 2514.3 2138.94 2538.07 2126.36 2554.85C2113.78 2571.62 2090.01 2575.82 2073.23 2563.23L1795.73 2362.62C1786.64 2355.63 1773.36 2357.73 1767.07 2367.51C1760.08 2376.6 1762.18 2389.88 1771.97 2396.17L2048.77 2597.48C2084.42 2623.35 2134.05 2615.66 2159.91 2580.01C2185.77 2544.36 2178.08 2494.73 2142.44 2468.87L2130.55 2460.48L2107.49 2477.26C2098.4 2483.55 2085.12 2481.45 2078.83 2472.36Z" fill="#93EAFF"/>
<path d="M1019.84 1126.1C1031.03 1126.1 1040.81 1117.01 1040.81 1105.13C1040.81 1084.16 1058.29 1066.68 1079.26 1066.68H1297.34C1308.53 1066.68 1318.31 1057.6 1318.31 1045.71C1318.31 1034.53 1309.23 1024.74 1297.34 1024.74H1079.26C1035.22 1024.74 999.57 1060.39 999.57 1104.43C999.57 1117.01 1008.66 1126.1 1019.84 1126.1Z" fill="#93EAFF"/>
<path d="M1075.06 1007.98C1086.25 1007.98 1096.03 998.893 1096.03 987.01C1096.03 966.04 1113.51 948.565 1134.48 948.565H1234.43C1245.62 948.565 1255.4 939.478 1255.4 927.595C1255.4 916.411 1246.32 906.625 1234.43 906.625H1134.48C1090.44 906.625 1054.79 942.274 1054.79 986.311C1054.79 998.893 1063.88 1007.98 1075.06 1007.98Z" fill="#93EAFF"/>
<path d="M1241.42 789.867L1232.34 817.128C1228.84 828.312 1216.96 833.904 1206.47 830.409C1195.29 826.914 1189.7 815.031 1193.19 804.546L1198.09 790.566C1156.85 793.362 1123.29 827.613 1123.29 869.553C1123.29 880.737 1132.38 890.523 1144.26 890.523C1155.45 890.523 1165.23 881.436 1165.23 869.553C1165.23 848.583 1182.71 831.108 1203.68 831.108H1493.76L1452.52 789.867H1241.42Z" fill="#93EAFF"/>
<path d="M1597.21 859.751L1760.78 917.768C1762.88 918.467 1765.67 919.166 1767.77 919.166H1934.83L1921.55 877.925H1771.96L1627.97 826.898L1621.68 845.771C1618.18 856.256 1607.7 861.848 1597.21 859.751Z" fill="#93EAFF"/>
<path d="M2473.76 919.182H2625.44C2636.63 919.182 2646.41 910.095 2646.41 898.212C2646.41 887.028 2637.33 877.242 2625.44 877.242H2460.48C2461.18 878.64 2461.88 880.038 2462.58 882.135L2473.76 919.182Z" fill="#93EAFF"/>
<path d="M2750.57 1298.06C2761.75 1298.06 2771.54 1288.98 2771.54 1277.09C2771.54 1265.91 2762.45 1256.12 2750.57 1256.12H2559.74L2558.34 1297.37H2750.57V1298.06Z" fill="#93EAFF"/>
<path d="M2087.21 1298.06C2086.52 1298.76 2085.82 1298.76 2085.82 1299.46C2086.52 1299.46 2087.21 1298.76 2087.21 1298.06Z" fill="#93EAFF"/>
<path d="M2095.6 1284.74C2095.6 1285.44 2095.6 1286.14 2095.6 1286.84C2094.9 1286.14 2094.9 1285.44 2095.6 1284.74Z" fill="#93EAFF"/>
<path d="M2055.06 1288.25L2045.97 1260.99H1670.61C1664.32 1260.99 1658.03 1263.79 1653.83 1269.38L1575.55 1371.44L1439.24 1418.97L1423.16 1468.6L1595.12 1408.48C1598.61 1407.08 1602.11 1404.99 1604.9 1401.49L1680.4 1302.23H1884.5L1878.21 1293.85C1876.81 1291.75 1875.42 1289.65 1874.72 1287.56C1871.92 1279.17 1874.72 1270.08 1881.71 1264.49C1890.79 1257.5 1904.08 1259.6 1910.37 1268.68L1935.53 1301.54H2073.23C2073.93 1301.54 2073.93 1301.54 2074.63 1301.54C2066.94 1302.93 2058.55 1297.34 2055.06 1288.25Z" fill="#93EAFF"/>
<path d="M2080.22 1301.56C2079.53 1301.56 2078.83 1302.26 2078.13 1302.26C2078.83 1302.26 2079.53 1302.26 2080.22 1301.56Z" fill="#93EAFF"/>
<path d="M2092.81 1292.44C2092.81 1293.14 2092.11 1293.84 2092.11 1293.84C2092.11 1293.84 2092.11 1293.14 2092.81 1292.44Z" fill="#93EAFF"/>
<path d="M2094.2 1288.95C2094.2 1289.64 2093.5 1290.34 2093.5 1291.04C2094.2 1290.34 2094.2 1289.64 2094.2 1288.95Z" fill="#93EAFF"/>
<path d="M2084.42 1300.14C2083.72 1300.14 2083.02 1300.84 2082.32 1300.84C2083.02 1300.84 2083.72 1300.84 2084.42 1300.14Z" fill="#93EAFF"/>
<path d="M2090.01 1295.94C2089.31 1296.64 2089.31 1296.64 2088.61 1297.34C2089.31 1296.64 2090.01 1295.94 2090.01 1295.94Z" fill="#93EAFF"/>
<path d="M1388.21 1459.51C1391.01 1467.9 1399.4 1473.49 1407.79 1473.49C1409.88 1473.49 1412.68 1472.79 1414.78 1472.09L1424.56 1468.6L1440.64 1418.97L1401.5 1432.95C1390.31 1437.14 1384.72 1449.03 1388.21 1459.51Z" fill="#93EAFF"/>
<path d="M1476.99 1266.61C1477.69 1267.31 1477.69 1267.31 1478.38 1268.01C1478.38 1267.31 1477.69 1267.31 1476.99 1266.61Z" fill="#93EAFF"/>
<path d="M1065.97 1262.38C1077.16 1265.88 1082.75 1277.76 1079.26 1288.25L1074.36 1302.23H1434.35L1443.43 1274.97C1446.23 1265.88 1455.32 1260.29 1464.4 1260.99C1463.71 1260.99 1463.71 1260.99 1463.01 1260.99H1016.35C995.376 1260.99 977.901 1243.51 977.901 1222.54C977.901 1201.57 995.376 1184.1 1016.35 1184.1H1358.86C1370.04 1184.1 1379.83 1175.01 1379.83 1163.13C1379.83 1151.94 1370.74 1142.16 1358.86 1142.16H1016.35C972.309 1142.16 936.66 1177.81 936.66 1221.84C936.66 1265.88 972.309 1301.53 1016.35 1301.53H1031.02L1040.11 1274.27C1043.61 1264.48 1055.49 1258.89 1065.97 1262.38Z" fill="#93EAFF"/>
<path d="M1474.19 1264.48C1474.89 1265.18 1475.59 1265.18 1475.59 1265.87C1475.59 1265.18 1474.89 1264.48 1474.19 1264.48Z" fill="#93EAFF"/>
<path d="M1481.88 1272.89C1481.88 1273.59 1482.58 1274.29 1482.58 1274.99C1482.58 1274.29 1482.58 1273.59 1481.88 1272.89Z" fill="#93EAFF"/>
<path d="M1079.26 1288.26C1082.75 1277.08 1077.16 1265.9 1065.98 1262.4C1054.79 1258.91 1043.61 1264.5 1040.11 1275.68L1031.03 1302.94H1074.36L1079.26 1288.26Z" fill="#93EAFF"/>
<path d="M1443.44 1275.66L1434.35 1302.92H1463.01C1472.79 1302.92 1480.48 1296.63 1482.58 1287.55C1482.58 1286.85 1482.58 1286.15 1483.28 1285.45C1483.28 1284.75 1483.28 1284.05 1483.28 1283.35C1483.28 1282.65 1483.28 1281.95 1483.28 1281.26C1483.28 1280.56 1483.28 1279.86 1483.28 1279.16C1483.28 1278.46 1483.28 1277.76 1483.28 1277.06C1483.28 1276.36 1482.58 1275.66 1482.58 1274.96C1482.58 1274.27 1481.88 1273.57 1481.88 1272.87C1481.88 1272.17 1481.18 1271.47 1481.18 1271.47C1481.18 1270.77 1480.48 1270.07 1479.78 1269.37C1479.08 1268.67 1479.08 1268.67 1478.39 1267.97C1477.69 1267.28 1477.69 1267.28 1476.99 1266.58C1476.29 1265.88 1476.29 1265.88 1475.59 1265.18C1474.89 1264.48 1474.19 1264.48 1474.19 1263.78C1473.49 1263.78 1472.79 1263.08 1472.79 1263.08C1472.09 1263.08 1471.4 1262.38 1470.7 1262.38C1470 1262.38 1469.3 1261.68 1469.3 1261.68C1468.6 1261.68 1467.9 1260.98 1467.2 1260.98C1466.5 1260.98 1465.8 1260.98 1465.1 1260.98C1455.32 1260.98 1446.23 1266.58 1443.44 1275.66Z" fill="#93EAFF"/>
<path d="M2112.38 825.521C2132.65 819.23 2154.32 829.715 2160.61 849.986L2227.71 1056.89C2231.21 1068.07 2243.09 1073.67 2253.58 1070.17C2264.76 1066.68 2270.35 1054.79 2266.86 1044.31L2199.75 837.404C2186.47 795.464 2141.04 773.096 2099.8 786.377C2088.61 789.872 2083.02 801.755 2086.51 812.24C2090.01 823.424 2101.19 829.016 2112.38 825.521Z" fill="#0086FF"/>
<path d="M2240.99 841.575C2261.26 835.284 2282.93 845.769 2289.22 866.04L2319.98 961.104C2323.48 972.288 2335.36 977.88 2345.84 974.385C2357.03 970.89 2362.62 959.007 2359.12 948.522L2328.37 853.458C2315.09 811.518 2269.65 789.15 2228.41 802.431C2217.23 805.926 2211.64 817.809 2215.13 828.294C2218.63 838.779 2230.51 845.07 2240.99 841.575Z" fill="#0086FF"/>
<path d="M2558.34 1298.04H2538.07C2527.58 1298.04 2518.5 1289.66 2517.8 1279.17L2514.3 1408.49L2554.84 1449.03L2558.34 1298.04Z" fill="#0086FF"/>
<path d="M2538.07 1256.8H2559.74L2561.14 1192.49C2561.14 1190.4 2561.14 1187.6 2560.44 1185.5L2473.76 919.185H2445.1C2433.92 919.185 2424.13 910.098 2424.13 898.215C2424.13 887.031 2433.22 877.245 2445.1 877.245H2459.78C2444.4 838.8 2401.76 817.83 2361.22 831.111C2350.04 834.606 2344.45 846.489 2347.94 856.974C2351.44 868.158 2363.32 873.75 2373.8 870.255C2394.07 863.964 2415.74 874.449 2422.03 894.72L2519.2 1193.89L2517.1 1272.88C2519.89 1263.79 2528.28 1256.8 2538.07 1256.8Z" fill="#0086FF"/>
<path d="M2514.3 1460.21L2566.03 1618.88L2600.98 1593.02L2554.85 1450.42V1449.03L2514.3 1408.48L2512.91 1452.52C2512.91 1455.32 2513.6 1457.41 2514.3 1460.21Z" fill="#0086FF"/>
<path d="M2424.83 898.224C2424.83 909.408 2433.92 919.194 2445.8 919.194H2474.46L2462.58 882.846C2461.88 881.448 2461.18 879.351 2460.48 877.953H2445.8C2433.92 877.953 2424.83 887.04 2424.83 898.224Z" fill="#0086FF"/>
<path d="M2538.07 1298.02H2558.34L2559.74 1256.78H2538.07C2527.58 1256.78 2519.2 1264.47 2517.8 1274.26V1279.85C2518.5 1289.63 2527.58 1298.02 2538.07 1298.02Z" fill="#0086FF"/>
<path d="M2732.39 2131.27L2779.22 2275.26C2782.72 2286.45 2794.6 2292.04 2805.09 2288.54C2816.27 2285.05 2821.86 2273.17 2818.37 2262.68L2767.34 2105.41C2765.94 2106.8 2764.55 2107.5 2763.15 2108.9L2732.39 2131.27Z" fill="#0086FF"/>
<path d="M2405.26 2283.64C2404.56 2283.64 2403.86 2284.34 2403.16 2284.34L2408.75 2282.95C2407.36 2282.95 2405.96 2282.95 2405.26 2283.64Z" fill="#0086FF"/>
<path d="M2457.68 2511.51C2461.18 2522.69 2473.06 2528.29 2483.55 2524.79C2494.73 2521.3 2500.32 2509.41 2496.83 2498.93L2438.11 2317.19L2398.27 2329.07L2457.68 2511.51Z" fill="#0086FF"/>
<path d="M2250.08 1879.6C2250.78 1880.3 2250.78 1880.3 2251.48 1881C2251.48 1880.3 2250.78 1880.3 2250.08 1879.6Z" fill="#0086FF"/>
<path d="M2273.15 1882.43C2273.85 1882.43 2274.55 1881.73 2275.25 1881.73C2274.55 1881.73 2273.85 1881.73 2273.15 1882.43Z" fill="#0086FF"/>
<path d="M2248.68 1878.21C2247.98 1877.51 2247.98 1876.81 2247.28 1876.81C2247.98 1876.81 2248.68 1877.51 2248.68 1878.21Z" fill="#0086FF"/>
<path d="M2253.58 1881.73C2254.28 1881.73 2254.97 1882.43 2254.97 1882.43C2254.97 1882.43 2254.28 1882.43 2253.58 1881.73Z" fill="#0086FF"/>
<path d="M2271.05 1883.09C2270.35 1883.09 2269.65 1883.79 2269.65 1883.79H2270.35C2270.35 1883.09 2271.05 1883.09 2271.05 1883.09Z" fill="#0086FF"/>
<path d="M2257.07 1883.09C2257.77 1883.09 2258.47 1883.09 2259.17 1883.79C2258.47 1883.79 2257.77 1883.79 2257.07 1883.09Z" fill="#0086FF"/>
<path d="M1994.95 1447.61C1997.74 1451.11 2000.54 1453.21 2004.73 1454.6L2122.16 1495.85L2185.07 1689.47L2190.67 1681.08C2192.06 1678.98 2193.46 1677.59 2195.56 1676.19C2202.55 1671.29 2212.33 1670.6 2219.32 1676.19C2228.41 1682.48 2231.21 1695.76 2224.22 1704.85L2200.45 1739.1L2243.09 1870.51C2243.09 1871.21 2243.09 1871.21 2243.79 1871.91C2240.29 1863.52 2243.09 1853.03 2250.78 1847.44L2273.85 1830.67L2157.81 1473.48C2155.72 1467.19 2150.82 1462.29 2145.23 1460.2L2023.6 1417.56L1936.23 1302.92H1884.5L1994.95 1447.61Z" fill="#0086FF"/>
<path d="M2245.19 1873.32C2245.19 1874.02 2245.89 1874.72 2246.59 1875.42C2245.89 1874.72 2245.89 1874.02 2245.19 1873.32Z" fill="#0086FF"/>
<path d="M1882.41 1265.91C1875.42 1271.5 1872.62 1280.58 1875.42 1288.97C1876.12 1291.07 1877.51 1293.17 1878.91 1295.26L1885.2 1303.65H1936.93L1911.77 1270.8C1904.78 1260.31 1891.49 1258.92 1882.41 1265.91Z" fill="#0086FF"/>
<path d="M1956.5 851.408C1950.21 831.137 1960.69 809.468 1980.97 803.177C2001.24 796.886 2022.91 807.371 2029.2 827.642L2078.83 980.024L2143.13 1044.33L2069.04 815.06C2055.76 773.12 2010.32 750.053 1969.08 764.033C1943.22 772.421 1924.35 793.391 1917.36 817.856L1960.7 861.194L1956.5 851.408Z" fill="#0086FF"/>
<path d="M2091.41 1293.86C2090.71 1294.56 2090.71 1295.26 2090.01 1295.26C2090.71 1295.26 2091.41 1294.56 2091.41 1293.86Z" fill="#0086FF"/>
<path d="M2081.62 1301.56H2082.32C2081.62 1301.56 2080.92 1302.26 2080.92 1302.26C2080.92 1301.56 2080.92 1301.56 2081.62 1301.56Z" fill="#0086FF"/>
<path d="M2159.21 1167.33H2150.12C2152.92 1168.03 2156.41 1168.03 2159.21 1167.33Z" fill="#0086FF"/>
<path d="M2046.67 1260.98H2075.33C2085.12 1260.98 2092.81 1267.27 2094.9 1276.36C2094.9 1275.66 2094.9 1275.66 2094.9 1274.96L2059.25 1166.62H2015.92L2046.67 1260.98Z" fill="#0086FF"/>
<path d="M2085.82 1299.43C2085.12 1299.43 2084.42 1300.13 2084.42 1300.13C2084.42 1300.13 2085.12 1300.13 2085.82 1299.43Z" fill="#0086FF"/>
<path d="M2089.31 1297.35C2088.61 1298.05 2088.61 1298.05 2087.91 1298.75C2087.91 1298.05 2088.61 1297.35 2089.31 1297.35Z" fill="#0086FF"/>
<path d="M2094.9 1286.87C2094.9 1287.57 2094.2 1288.27 2094.2 1288.96C2094.9 1288.27 2094.9 1287.57 2094.9 1286.87Z" fill="#0086FF"/>
<path d="M1917.36 863.974L1921.55 877.954H1950.21C1961.39 877.954 1971.18 887.041 1971.18 898.924C1971.18 910.108 1962.09 919.894 1950.21 919.894H1935.53L2015.92 1168.04H2059.25L1959.3 861.877L1915.96 818.539C1911.76 832.519 1911.76 848.596 1917.36 863.974Z" fill="#0086FF"/>
<path d="M2134.75 1153.38C2136.84 1160.37 2143.13 1165.26 2149.43 1167.36H2158.51C2159.21 1167.36 2159.91 1167.36 2160.61 1166.66C2171.79 1163.16 2177.39 1151.28 2173.89 1140.79L2142.44 1044.33L2078.13 980.023L2134.75 1153.38Z" fill="#0086FF"/>
<path d="M1950.21 919.182C1961.39 919.182 1971.18 910.095 1971.18 898.212C1971.18 887.028 1962.09 877.242 1950.21 877.242H1921.55L1934.83 918.483H1950.21V919.182Z" fill="#0086FF"/>
<path d="M2074.63 1260.98H2045.97L2055.06 1288.25C2057.86 1297.33 2066.94 1302.92 2076.03 1302.23C2076.73 1302.23 2077.43 1302.23 2078.13 1302.23C2078.83 1302.23 2079.53 1302.23 2080.22 1301.53C2080.92 1301.53 2081.62 1301.53 2081.62 1300.83C2082.32 1300.83 2083.02 1300.13 2083.72 1300.13C2084.42 1300.13 2085.12 1299.43 2085.12 1299.43C2085.82 1298.73 2086.52 1298.73 2086.52 1298.03C2087.21 1297.33 2087.91 1297.33 2087.91 1296.63C2088.61 1295.93 2088.61 1295.93 2089.31 1295.24C2090.01 1294.54 2090.01 1294.54 2090.71 1293.84C2091.41 1293.14 2091.41 1292.44 2091.41 1292.44C2091.41 1291.74 2092.11 1291.04 2092.11 1290.34C2092.11 1289.64 2092.81 1288.94 2092.81 1288.25C2092.81 1287.55 2093.51 1286.85 2093.51 1286.15C2093.51 1285.45 2093.51 1284.75 2093.51 1284.05C2093.51 1283.35 2093.51 1282.65 2093.51 1281.95C2093.51 1281.26 2093.51 1280.56 2093.51 1279.86C2093.51 1279.16 2093.51 1278.46 2093.51 1277.76C2093.51 1277.06 2093.51 1276.36 2092.81 1275.66C2092.81 1267.97 2084.42 1260.98 2074.63 1260.98Z" fill="#0086FF"/>
<path d="M2519.89 1968.36C2526.88 1977.45 2539.47 1979.55 2548.55 1973.26L2599.58 1936.21L2570.22 1906.85L2524.79 1939.7C2515.7 1946 2513.6 1959.28 2519.89 1968.36Z" fill="#93EAFF"/>
<path d="M2725.4 1845.36C2761.05 1819.5 2768.74 1769.87 2742.88 1734.22C2735.89 1725.13 2723.3 1723.04 2714.22 1729.33C2705.13 1736.32 2703.03 1748.9 2709.32 1757.99C2721.91 1774.76 2717.71 1799.23 2700.94 1811.11L2570.22 1906.17L2599.58 1935.53L2725.4 1845.36Z" fill="#93EAFF"/>
<path d="M2640.12 2027.09C2647.11 2036.17 2659.7 2038.27 2668.78 2031.98L2684.16 2020.8L2659.7 1996.33L2654.8 1991.44L2645.02 1998.43C2635.23 2004.72 2633.13 2018 2640.12 2027.09Z" fill="#93EAFF"/>
<path d="M2684.16 2020.79L2749.87 1973.26C2785.51 1947.4 2793.2 1897.77 2767.34 1862.12C2760.35 1853.03 2747.77 1850.93 2738.68 1857.23C2729.59 1863.52 2727.5 1876.8 2733.79 1885.88C2746.37 1902.66 2742.18 1927.13 2725.4 1939.01L2654.1 1990.73L2659 1995.63L2684.16 2020.79Z" fill="#93EAFF"/>
<path d="M2408.75 2282.22C2418.54 2280.83 2428.33 2286.42 2431.12 2296.2L2438.11 2316.48L2499.62 2298.3C2501.72 2297.6 2503.82 2296.9 2505.91 2295.51L2732.39 2131.24L2723.3 2103.98C2719.81 2092.8 2725.4 2081.61 2736.58 2078.12C2737.98 2077.42 2739.38 2077.42 2740.78 2077.42L2738.68 2075.32L2484.25 2259.86L2408.75 2282.22Z" fill="#93EAFF"/>
<path d="M2403.16 2284.31L2236.1 2333.24C2234 2333.94 2231.91 2334.64 2229.81 2336.04L2094.9 2433.9L2129.85 2459.76L2250.78 2371.69L2397.57 2328.35L2391.28 2308.78C2388.48 2298.99 2393.38 2288.51 2403.16 2284.31Z" fill="#93EAFF"/>
<path d="M2767.34 2105.37L2768.04 2104.67L2765.94 2102.57L2767.34 2105.37Z" fill="#93EAFF"/>
<path d="M2762.45 2091.43L2765.94 2102.62L2768.04 2104.71C2799.49 2078.15 2805.09 2031.32 2780.62 1997.77C2773.63 1988.68 2761.05 1986.58 2751.96 1992.87C2742.88 1999.86 2740.78 2012.45 2747.07 2021.53C2759.65 2038.31 2755.46 2062.77 2738.68 2074.66L2740.78 2076.75C2750.57 2076.05 2759.65 2081.65 2762.45 2091.43Z" fill="#93EAFF"/>
<path d="M2083.02 2443.02C2073.93 2450.01 2071.84 2462.6 2078.13 2471.68C2085.12 2480.77 2097.7 2482.87 2106.79 2476.58L2129.85 2459.8L2094.9 2433.94L2083.02 2443.02Z" fill="#93EAFF"/>
<path d="M2740.78 2077.45C2739.38 2077.45 2737.98 2078.15 2736.59 2078.15C2725.4 2081.65 2719.81 2093.53 2723.3 2104.02L2732.39 2131.28L2763.85 2108.91C2765.24 2108.21 2766.64 2106.81 2768.04 2105.41L2767.34 2102.62L2740.78 2077.45Z" fill="#93EAFF"/>
<path d="M2762.45 2091.43C2759.65 2081.64 2749.87 2076.05 2740.78 2077.45L2766.64 2103.31L2762.45 2091.43Z" fill="#93EAFF"/>
<path d="M2408.75 2282.21L2403.16 2283.61C2393.38 2287.8 2388.48 2298.99 2391.98 2308.77L2398.27 2328.34L2438.11 2316.46L2431.12 2296.19C2427.63 2287.1 2418.54 2280.81 2408.75 2282.21Z" fill="#93EAFF"/>
<path d="M1536.4 2840.04C1527.32 2847.03 1525.22 2859.61 1531.51 2868.7C1538.5 2877.79 1551.08 2879.88 1560.17 2873.59L1683.89 2783.42L1654.53 2754.06L1536.4 2840.04Z" fill="#93EAFF"/>
<path d="M1659.43 2751.27L1655.23 2754.07L1684.59 2783.43L1694.38 2776.44C1692.98 2775.74 1691.58 2774.34 1690.18 2773.64L1659.43 2751.27Z" fill="#93EAFF"/>
<path d="M1711.15 2739.36C1704.16 2730.27 1691.58 2728.18 1682.49 2734.47L1659.43 2751.24L1690.88 2773.61C1692.28 2774.31 1693.68 2775.71 1695.08 2776.41L1706.96 2768.02C1716.05 2761.03 1717.44 2748.45 1711.15 2739.36Z" fill="#93EAFF"/>
<path d="M1212.77 2607.26C1203.68 2614.25 1201.58 2626.83 1207.87 2635.92C1214.86 2645 1227.44 2647.1 1236.53 2640.81L1391.01 2528.97L1367.94 2494.72L1212.77 2607.26Z" fill="#93EAFF"/>
<path d="M1413.38 2487.05C1412.68 2486.36 1412.68 2486.36 1411.98 2485.66L1415.47 2490.55C1414.78 2489.15 1414.08 2488.45 1413.38 2487.05Z" fill="#93EAFF"/>
<path d="M1412.68 2512.18L1384.02 2483.52L1367.94 2494.71L1391.01 2528.96L1408.49 2516.38C1410.58 2514.98 1411.98 2513.58 1412.68 2512.18Z" fill="#93EAFF"/>
<path d="M1384.72 2482.84L1413.38 2512.2C1418.27 2505.91 1418.97 2497.52 1415.47 2490.53L1411.98 2485.64C1404.99 2477.95 1393.11 2476.55 1384.72 2482.84Z" fill="#93EAFF"/>
<path d="M1752.39 2210.24C1753.09 2209.54 1753.09 2208.84 1753.79 2208.84C1753.79 2208.84 1753.09 2209.54 1752.39 2210.24Z" fill="#93EAFF"/>
<path d="M1750.3 2213.72C1750.3 2213.02 1751 2212.32 1751.69 2211.62C1751 2212.32 1751 2213.02 1750.3 2213.72Z" fill="#93EAFF"/>
<path d="M1781.05 2206.06L1804.12 2222.83L2108.18 2001.95C2113.08 1998.45 2116.57 1992.16 2116.57 1985.87L2119.37 1857.26L2201.85 1738.43L2185.77 1688.8L2082.32 1838.38C2080.22 1841.88 2078.83 1845.37 2078.83 1849.57L2076.03 1973.99L1911.07 2093.52L1920.85 2096.31C1922.95 2097.01 1925.05 2097.71 1927.14 2099.11C1934.13 2104 1937.63 2113.09 1934.83 2121.48C1931.34 2132.66 1920.15 2138.95 1908.97 2135.46L1869.13 2123.57L1757.29 2204.66L1756.59 2205.36C1762.88 2201.16 1773.36 2200.46 1781.05 2206.06Z" fill="#93EAFF"/>
<path d="M1751.69 2235.41L1752.39 2236.11C1752.39 2235.41 1751.69 2235.41 1751.69 2235.41C1751.69 2234.72 1751.69 2234.72 1751.69 2235.41Z" fill="#93EAFF"/>
<path d="M1755.89 2238.91C1755.19 2238.21 1754.49 2238.21 1754.49 2237.51C1754.49 2238.21 1755.19 2238.91 1755.89 2238.91Z" fill="#93EAFF"/>
<path d="M1748.9 2229.12C1748.9 2228.42 1748.2 2227.72 1748.2 2227.02C1748.9 2227.72 1748.9 2228.42 1748.9 2229.12Z" fill="#93EAFF"/>
<path d="M1934.13 2123.54C1936.93 2115.15 1933.43 2106.06 1926.44 2101.17C1924.35 2099.77 1922.25 2099.07 1920.15 2098.37L1910.37 2095.58L1868.43 2126.33L1908.27 2138.22C1918.75 2140.31 1930.64 2134.02 1934.13 2123.54Z" fill="#93EAFF"/>
<path d="M1781.05 2239.59L1804.12 2222.82L1781.05 2206.04C1773.36 2200.45 1762.88 2201.15 1755.89 2206.74C1755.19 2207.44 1755.19 2207.44 1754.49 2208.14C1753.79 2208.84 1753.79 2209.54 1753.09 2209.54C1752.39 2210.23 1752.39 2210.23 1751.69 2210.93C1750.99 2211.63 1750.99 2212.33 1750.3 2213.03C1750.3 2213.73 1749.6 2214.43 1749.6 2214.43C1749.6 2215.13 1748.9 2215.83 1748.9 2216.53C1748.9 2217.22 1748.2 2217.92 1748.2 2218.62C1748.2 2219.32 1748.2 2220.02 1748.2 2220.72C1748.2 2221.42 1748.2 2222.12 1748.2 2222.82C1748.2 2223.52 1748.2 2224.21 1748.2 2224.91C1748.2 2225.61 1748.2 2226.31 1748.2 2227.01C1748.2 2227.71 1748.2 2228.41 1748.9 2229.11C1748.9 2229.81 1749.6 2230.51 1749.6 2231.2C1749.6 2231.9 1750.3 2232.6 1750.3 2232.6C1750.99 2233.3 1750.99 2234 1751.69 2234.7C1751.69 2235.4 1752.39 2235.4 1753.09 2236.1C1753.79 2236.8 1753.79 2237.5 1754.49 2237.5C1755.19 2238.19 1755.19 2238.19 1755.89 2238.89C1762.88 2245.18 1773.36 2245.18 1781.05 2239.59Z" fill="#93EAFF"/>
<path d="M2224.92 1704.85C2231.21 1695.77 2229.11 1682.48 2220.02 1676.19C2212.34 1671.3 2203.25 1671.3 2196.26 1676.19C2194.16 1677.59 2192.76 1678.99 2191.37 1681.09L2185.77 1689.47L2201.85 1739.1L2224.92 1704.85Z" fill="#93EAFF"/>
<path d="M2250.08 1879.63C2249.38 1878.93 2249.38 1878.93 2248.68 1878.23C2249.38 1878.93 2250.08 1878.93 2250.08 1879.63Z" fill="#93EAFF"/>
<path d="M2271.05 1883.08C2271.75 1883.08 2272.45 1882.38 2273.15 1882.38C2272.45 1882.38 2271.75 1882.38 2271.05 1883.08Z" fill="#93EAFF"/>
<path d="M2259.17 1883.8C2259.87 1883.8 2260.57 1883.8 2261.26 1884.5C2260.57 1884.5 2259.87 1883.8 2259.17 1883.8Z" fill="#93EAFF"/>
<path d="M2247.29 1876.8C2246.59 1876.1 2246.59 1876.1 2245.89 1875.4C2246.59 1875.4 2246.59 1875.4 2247.29 1876.8C2247.29 1876.1 2247.29 1876.1 2247.29 1876.8Z" fill="#93EAFF"/>
<path d="M2255.67 1882.38C2256.37 1882.38 2257.07 1883.08 2257.77 1883.08C2256.37 1883.08 2256.37 1883.08 2255.67 1882.38Z" fill="#93EAFF"/>
<path d="M2724 1602.08C2712.12 1586.01 2695.34 1575.52 2677.17 1571.33L2737.28 1631.44C2734.49 1620.96 2730.29 1611.17 2724 1602.08Z" fill="#93EAFF"/>
<path d="M2252.18 1881.02C2252.88 1881.72 2253.58 1881.72 2253.58 1882.42C2252.88 1881.72 2252.88 1881.02 2252.18 1881.02Z" fill="#93EAFF"/>
<path d="M2274.55 1881.02C2274.55 1881.02 2275.25 1881.02 2275.25 1880.32L2430.42 1767.08L2401.07 1737.73L2273.85 1829.99L2282.93 1857.26C2286.43 1866.34 2282.23 1876.13 2274.55 1881.02Z" fill="#93EAFF"/>
<path d="M2404.56 1881.03C2395.47 1888.02 2393.38 1900.6 2399.67 1909.69C2406.66 1918.77 2419.24 1920.87 2428.33 1914.58L2515 1851.67L2485.64 1822.31L2404.56 1881.03Z" fill="#93EAFF"/>
<path d="M2636.63 1618.16C2653.4 1605.58 2677.87 1609.77 2689.75 1626.55C2702.33 1643.33 2698.14 1667.79 2681.36 1679.67L2485.64 1822.27L2515 1851.63L2705.83 1713.23C2732.39 1693.65 2743.57 1661.5 2736.58 1631.44L2676.47 1571.33C2654.8 1566.44 2631.04 1570.63 2612.16 1584.61L2600.28 1593L2609.37 1620.26C2612.86 1631.44 2607.27 1642.63 2596.09 1646.12C2584.9 1649.62 2573.72 1644.03 2570.22 1632.84L2565.33 1618.86L2401.06 1738.39L2430.42 1767.75L2636.63 1618.16Z" fill="#93EAFF"/>
<path d="M2570.22 1632.85C2573.72 1644.03 2585.6 1649.63 2596.09 1646.13C2607.27 1642.64 2612.86 1630.75 2609.37 1620.27L2600.28 1593.01L2565.33 1618.87L2570.22 1632.85Z" fill="#93EAFF"/>
<path d="M2244.49 1871.23C2244.49 1871.92 2245.19 1872.62 2245.19 1873.32C2245.19 1874.02 2245.89 1874.72 2246.59 1875.42C2246.59 1876.12 2247.29 1876.12 2247.98 1876.82C2248.68 1877.52 2248.68 1878.22 2249.38 1878.22C2250.08 1878.91 2250.08 1878.91 2250.78 1879.61C2251.48 1880.31 2252.18 1880.31 2252.18 1881.01C2252.88 1881.71 2253.58 1881.71 2253.58 1882.41C2254.28 1882.41 2254.97 1883.11 2254.97 1883.11C2255.67 1883.11 2256.37 1883.81 2257.07 1883.81C2257.77 1883.81 2258.47 1883.81 2259.17 1884.51C2259.87 1884.51 2260.57 1884.51 2261.27 1885.21C2261.96 1885.21 2262.66 1885.21 2263.36 1885.21C2264.06 1885.21 2264.76 1885.21 2265.46 1885.21C2266.16 1885.21 2266.86 1885.21 2267.56 1885.21C2268.26 1885.21 2268.95 1885.21 2269.65 1884.51C2270.35 1884.51 2271.05 1883.81 2271.05 1883.81C2271.75 1883.81 2272.45 1883.11 2273.15 1883.11C2273.85 1883.11 2274.55 1882.41 2275.25 1882.41C2282.93 1877.52 2286.43 1867.73 2283.63 1858.64L2274.55 1831.38L2251.48 1848.16C2243.79 1852.35 2240.99 1862.84 2244.49 1871.23Z" fill="#93EAFF"/>
<path d="M0 2327.67H496.29V1167.33C496.29 1167.33 18.873 1167.33 0 1167.33V2327.67Z" fill="#93EAFF"/>
</g>
<path d="M3470.69 3959.21H3309.4V4005.86H3455.87V4072.56H3309.4V4125.31H3470.69V4192H3234.85V3892.52H3470.69V3959.21Z" fill="black"/>
<path d="M3104.48 3892.52H3188.18L3070.04 4192H2985.9L2867.76 3892.52H2951.46L3028.19 4085.64L3104.48 3892.52Z" fill="black"/>
<path d="M2746.55 4192V3892.52H2821.1V4192H2746.55Z" fill="black"/>
<path d="M2531.09 4192V3959.21H2440.41V3892.52H2696.74V3959.21H2605.63V4192H2531.09Z" fill="black"/>
<path d="M2330.93 4192L2312.62 4146.23H2195.79L2177.48 4192H2093.78L2212.36 3892.52H2296.06L2414.63 4192H2330.93ZM2218.03 4090H2290.39L2254.21 3998.01L2218.03 4090Z" fill="black"/>
<path d="M1768.24 4192V3892.52H1842.79L1973.57 4069.51V3892.52H2047.68V4192H1973.57L1842.79 4015.01V4192H1768.24Z" fill="black"/>
<path d="M1311.45 4192V3892.52H1420.87C1523.75 3892.52 1596.55 3954.42 1596.55 4042.04C1596.55 4129.67 1523.75 4192 1420.87 4192H1311.45ZM1385.99 4124.43H1432.2C1483.64 4124.43 1519.83 4090 1519.83 4042.04C1519.83 3994.09 1483.64 3960.09 1432.2 3960.09H1385.99V4124.43Z" fill="black"/>
<path d="M1108.93 4197.24C1027.41 4197.24 969.866 4141 969.866 4060.79V3892.52H1044.41V4057.3C1044.41 4099.59 1071.44 4129.67 1108.93 4129.67C1146.86 4129.67 1173.88 4099.59 1173.88 4057.3V3892.52H1247.99V4060.79C1247.99 4141 1190.89 4197.24 1108.93 4197.24Z" fill="black"/>
<path d="M761.413 4197.23C673.79 4197.23 600.116 4126.18 600.116 4042.04C600.116 3957.9 673.79 3887.28 761.413 3887.28C848.601 3887.28 922.274 3957.9 922.274 4042.04C922.274 4126.18 848.601 4197.23 761.413 4197.23ZM761.413 4129.66C807.187 4129.66 845.549 4089.56 845.549 4042.04C845.549 3994.96 807.187 3954.85 761.413 3954.85C715.64 3954.85 676.841 3994.96 676.841 4042.04C676.841 4089.56 715.64 4129.66 761.413 4129.66Z" fill="black"/>
<path d="M422.162 4125.31H566.457V4192H347.616V3892.52H422.162V4125.31Z" fill="black"/>
<path d="M180.731 4197.23C93.1072 4197.23 19.4338 4126.18 19.4338 4042.04C19.4338 3957.9 93.1072 3887.28 180.731 3887.28C227.376 3887.28 269.662 3907.33 299.306 3938.72L244.813 3987.11C229.556 3967.49 206.015 3954.85 180.731 3954.85C134.957 3954.85 96.1588 3994.96 96.1588 4042.04C96.1588 4089.56 134.957 4129.66 180.731 4129.66C206.451 4129.66 229.556 4117.02 245.249 4097.4L299.306 4145.36C269.662 4177.18 227.376 4197.23 180.731 4197.23Z" fill="black"/>
<path d="M2265.25 4761.42C2194.54 4761.42 2134.14 4701.39 2134.14 4630.31C2134.14 4559.24 2194.54 4499.58 2265.25 4499.58C2336.69 4499.58 2396.35 4559.24 2396.35 4630.31C2396.35 4701.39 2336.69 4761.42 2265.25 4761.42ZM2265.25 4727.17C2315.7 4727.17 2358.42 4682.97 2358.42 4630.31C2358.42 4578.02 2315.7 4533.83 2265.25 4533.83C2214.79 4533.83 2172.08 4578.02 2172.08 4630.31C2172.08 4682.97 2214.79 4727.17 2265.25 4727.17Z" fill="black"/>
<path d="M1984.46 4757V4538.62H1901.24V4504H2104.52V4538.62H2021.66V4757H1984.46Z" fill="black"/>
<path d="M1873.13 4586.49C1873.13 4628.47 1842.57 4659.78 1799.85 4667.14L1862.82 4757H1820.1L1758.23 4668.98H1709.99V4757H1672.8V4504H1779.22C1832.26 4504 1873.13 4538.25 1873.13 4586.49ZM1709.99 4538.62V4634.37H1773.7C1810.16 4634.37 1835.2 4616.32 1835.2 4586.49C1835.2 4556.66 1810.16 4538.62 1773.7 4538.62H1709.99Z" fill="black"/>
<path d="M1484.48 4761.42C1413.77 4761.42 1353.38 4701.39 1353.38 4630.31C1353.38 4559.24 1413.77 4499.58 1484.48 4499.58C1555.92 4499.58 1615.58 4559.24 1615.58 4630.31C1615.58 4701.39 1555.92 4761.42 1484.48 4761.42ZM1484.48 4727.17C1534.93 4727.17 1577.65 4682.97 1577.65 4630.31C1577.65 4578.02 1534.93 4533.83 1484.48 4533.83C1434.03 4533.83 1391.31 4578.02 1391.31 4630.31C1391.31 4682.97 1434.03 4727.17 1484.48 4727.17Z" fill="black"/>
<path d="M1117.88 4757V4504H1224.31C1277.34 4504 1318.22 4538.25 1318.22 4586.49C1318.22 4634.73 1277.34 4668.98 1224.31 4668.98H1155.07V4757H1117.88ZM1155.07 4634.37H1218.78C1255.24 4634.37 1280.28 4616.32 1280.28 4586.49C1280.28 4556.66 1255.24 4538.62 1218.78 4538.62H1155.07V4634.37Z" fill="black"/>
<defs>
<clipPath id="clip0_8650_5190">
<rect width="3495" height="3495" fill="white"/>
</clipPath>
</defs>
</svg>
